<?xml version="1.0" encoding="UTF-8"?>
<svg width="16px" height="16px" viewBox="0 0 16 16" version="1.1" xmlns="http://www.w3.org/2000/svg" xmlns:xlink="http://www.w3.org/1999/xlink">
    <!-- Generator: sketchtool 63.1 (101010) - https://sketch.com -->
    <title>642713BF-3ABA-4E3E-B128-4E8EC69C3EA7</title>
    <desc>Created with sketchtool.</desc>
    <g id="symbol" stroke="none" stroke-width="1" fill="none" fill-rule="evenodd">
        <g id="Icon/add-circle">
            <g id="add_circle-24px">
                <polygon id="Path" points="0 0 16 0 16 16 0 16"></polygon>
                <path d="M8,1.33333333 C4.32,1.33333333 1.33333333,4.32 1.33333333,8 C1.33333333,11.68 4.32,14.6666667 8,14.6666667 C11.68,14.6666667 14.6666667,11.68 14.6666667,8 C14.6666667,4.32 11.68,1.33333333 8,1.33333333 Z M11.3333333,8.66666667 L8.66666667,8.66666667 L8.66666667,11.3333333 L7.33333333,11.3333333 L7.33333333,8.66666667 L4.66666667,8.66666667 L4.66666667,7.33333333 L7.33333333,7.33333333 L7.33333333,4.66666667 L8.66666667,4.66666667 L8.66666667,7.33333333 L11.3333333,7.33333333 L11.3333333,8.66666667 Z" id="Shape" fill="#fff"></path>
            </g>
        </g>
    </g>
</svg>
