<?xml version="1.0" encoding="UTF-8"?>
<svg width="20px" height="20px" viewBox="0 0 20 20" version="1.1" xmlns="http://www.w3.org/2000/svg" xmlns:xlink="http://www.w3.org/1999/xlink">
    <!-- Generator: sketchtool 63.1 (101010) - https://sketch.com -->
    <title>56A73E61-B345-4D05-A5F4-00780D09DD71</title>
    <desc>Created with sketchtool.</desc>
    <g id="main_exem" stroke="none" stroke-width="1" fill="none" fill-rule="evenodd">
        <g id="Dashboard-List" transform="translate(-1844.000000, -64.000000)">
            <g id="Card/ΩElements/1.-Container/A.-Elevated/a.-Enabled/Dark-04dp" transform="translate(56.000000, 56.000000)">
                <g id="Icon/import" transform="translate(1788.000000, 8.000000)">
                    <g id="switch_camera-24px">
                        <polygon id="Path" points="0 0 20 0 20 20 0 20"></polygon>
                        <path d="M3.5,8.375 L3.5,16.1875 L16.625,16.1875 L16.625,8.375 L18.5,8.375 L18.5,16.0625 C18.5,17.1670695 17.6045695,18.0625 16.5,18.0625 L3.625,18.0625 C2.5204305,18.0625 1.625,17.1670695 1.625,16.0625 L1.625,8.375 L3.5,8.375 Z M11.1547115,2.125 L11.1538462,10.5865385 L14.0384615,10.5865385 L10,14.625 L5.96153846,10.5865385 L8.84615385,10.5865385 L8.84721154,2.125 L11.1547115,2.125 Z" id="Combined-Shape" fill="#fff"></path>
                    </g>
                </g>
            </g>
        </g>
    </g>
</svg>
