<svg xmlns="http://www.w3.org/2000/svg" viewBox="0 0 1070 1070"><defs><linearGradient id="Gradient-0" x1="1" y1=".5" x2=".3" y2="1"><stop offset="0" stop-color="#5100ff"/><stop offset="1" stop-color="#a283ff"/></linearGradient><linearGradient id="Gradient-1" x1="0" y1=".2" x2="1" y2=".8"><stop offset="0" stop-color="#4c4aef"/><stop offset="1" stop-color="#3f25a3"/></linearGradient><linearGradient id="Gradient-2" x1="1" y1="0" x2="0" y2="1"><stop offset="0" stop-color="#3f25a3" stop-opacity=".42"/><stop offset=".2" stop-color="#4330b9" stop-opacity=".58"/><stop offset=".8" stop-color="#4c4aef"/><stop offset="1" stop-color="#5f59f7" stop-opacity=".78"/></linearGradient><linearGradient id="Gradient-3" x1="-69.2" y1="-376" x2="0" y2="0" gradientUnits="userSpaceOnUse"><stop offset="0" stop-color="#6759f7" stop-opacity=".89"/><stop offset=".3" stop-color="#3e3ce5" stop-opacity=".91"/><stop offset=".5" stop-color="#3e3ce5"/><stop offset="1" stop-color="#4740e5" stop-opacity=".87"/></linearGradient><linearGradient id="Gradient-4" x1="311.3" y1="-403.1" x2="-69.2" y2="-376" gradientUnits="userSpaceOnUse"><stop offset="0" stop-color="#6a5cf6" stop-opacity=".92"/><stop offset=".3" stop-color="#4341e9" stop-opacity=".87"/><stop offset=".6" stop-color="#3c39ec"/><stop offset="1" stop-color="#5f59f7"/></linearGradient><linearGradient id="Gradient-5" x1="310" y1="-428.4" x2="315.6" y2="-25" gradientUnits="userSpaceOnUse"><stop offset="0" stop-color="#665ef1" stop-opacity=".95"/><stop offset=".2" stop-color="#4341e9"/><stop offset=".6" stop-color="#4744eb"/><stop offset="1" stop-color="#5f59f7" stop-opacity=".88"/></linearGradient><radialGradient id="Gradient-6" cx=".3" cy=".1" r="1" fx=".3" fy=".1"><stop offset="0" stop-color="#fff"/><stop offset=".2" stop-color="#fff"/><stop offset="1" stop-color="#a283ff"/></radialGradient><linearGradient id="Gradient-7" x1="351.5" y1="390.2" x2="352.4" y2="22.5" gradientUnits="userSpaceOnUse"><stop offset="0" stop-color="#6254ef"/><stop offset=".1" stop-color="#3e3ce5" stop-opacity=".8"/><stop offset=".4" stop-color="#7bc8d6"/><stop offset="1" stop-color="#93ffd0"/></linearGradient><linearGradient id="Gradient-8" x1="0" y1=".8" x2="1" y2="0"><stop offset="0" stop-color="#b29bff"/><stop offset=".4" stop-color="#79ffc5"/><stop offset=".6" stop-color="#85f3ce"/><stop offset="1" stop-color="#c4b4ff"/></linearGradient><linearGradient id="Gradient-9" x1="0" y1=".2" x2="1" y2=".7"><stop offset="0" stop-color="#93ffd0"/><stop offset=".2" stop-color="#00cca8"/><stop offset="1" stop-color="#d3c7ff"/></linearGradient></defs><style>
@keyframes a0_t { 0% { transform: translate(409.4px,411.6px) rotate(0deg) translate(-410.6px,-412.8px); } 100% { transform: translate(409.4px,411.6px) rotate(174.5deg) translate(-410.6px,-412.8px); } }
@keyframes a1_t { 0% { transform: translate(670px,620.5px); animation-timing-function: cubic-bezier(.4,0,.6,1); } 8.333% { transform: translate(670px,535px); animation-timing-function: cubic-bezier(.4,0,.6,1); } 25% { transform: translate(670px,620.5px); animation-timing-function: steps(1); } 25.004% { transform: translate(670px,620.5px); animation-timing-function: cubic-bezier(.4,0,.6,1); } 33.333% { transform: translate(670px,535px); animation-timing-function: cubic-bezier(.4,0,.6,1); } 50% { transform: translate(670px,620.5px); animation-timing-function: steps(1); } 50.004% { transform: translate(670px,620.5px); animation-timing-function: cubic-bezier(.4,0,.6,1); } 58.333% { transform: translate(670px,535px); animation-timing-function: cubic-bezier(.4,0,.6,1); } 75% { transform: translate(670px,620.5px); animation-timing-function: steps(1); } 75.004% { transform: translate(670px,620.5px); animation-timing-function: cubic-bezier(.4,0,.6,1); } 83.333% { transform: translate(670px,535px); animation-timing-function: cubic-bezier(.4,0,.6,1); } 100% { transform: translate(670px,620.5px); } }
@keyframes a3_t { 0% { transform: translate(719px,248px); animation-timing-function: cubic-bezier(.4,0,.6,1); } 8.333% { transform: translate(719px,179px); animation-timing-function: cubic-bezier(.4,0,.6,1); } 16.667% { transform: translate(719px,248px); animation-timing-function: steps(1); } 16.671% { transform: translate(719px,248px); animation-timing-function: cubic-bezier(.4,0,.6,1); } 25% { transform: translate(719px,179px); animation-timing-function: cubic-bezier(.4,0,.6,1); } 33.333% { transform: translate(719px,248px); animation-timing-function: steps(1); } 33.337% { transform: translate(719px,248px); animation-timing-function: cubic-bezier(.4,0,.6,1); } 41.667% { transform: translate(719px,179px); animation-timing-function: cubic-bezier(.4,0,.6,1); } 50% { transform: translate(719px,248px); animation-timing-function: steps(1); } 50.004% { transform: translate(719px,248px); animation-timing-function: cubic-bezier(.4,0,.6,1); } 58.333% { transform: translate(719px,179px); animation-timing-function: cubic-bezier(.4,0,.6,1); } 66.667% { transform: translate(719px,248px); animation-timing-function: steps(1); } 66.671% { transform: translate(719px,248px); animation-timing-function: cubic-bezier(.4,0,.6,1); } 75% { transform: translate(719px,179px); animation-timing-function: cubic-bezier(.4,0,.6,1); } 83.333% { transform: translate(719px,248px); animation-timing-function: steps(1); } 83.337% { transform: translate(719px,248px); animation-timing-function: cubic-bezier(.4,0,.6,1); } 91.667% { transform: translate(719px,179px); animation-timing-function: cubic-bezier(.4,0,.6,1); } 100% { transform: translate(719px,248px); } }
@keyframes a2_t { 0% { transform: rotate(0deg) translate(-3.8px,-4px); } 25% { transform: rotate(360deg) translate(-3.8px,-4px); animation-timing-function: steps(1); } 25.004% { transform: rotate(0deg) translate(-3.8px,-4px); } 50% { transform: rotate(360deg) translate(-3.8px,-4px); animation-timing-function: steps(1); } 50.004% { transform: rotate(0deg) translate(-3.8px,-4px); } 75% { transform: rotate(360deg) translate(-3.8px,-4px); animation-timing-function: steps(1); } 75.004% { transform: rotate(0deg) translate(-3.8px,-4px); } 100% { transform: rotate(360deg) translate(-3.8px,-4px); } }
@keyframes a5_t { 0% { transform: translate(224.6px,678.1px); animation-timing-function: cubic-bezier(.4,0,.6,1); } 8.333% { transform: translate(224.6px,626.7px); animation-timing-function: cubic-bezier(.4,0,.6,1); } 16.667% { transform: translate(224.6px,678.1px); animation-timing-function: steps(1); } 16.671% { transform: translate(224.6px,678.1px); animation-timing-function: cubic-bezier(.4,0,.6,1); } 25% { transform: translate(224.6px,626.7px); animation-timing-function: cubic-bezier(.4,0,.6,1); } 33.333% { transform: translate(224.6px,678.1px); animation-timing-function: steps(1); } 33.337% { transform: translate(224.6px,678.1px); animation-timing-function: cubic-bezier(.4,0,.6,1); } 41.667% { transform: translate(224.6px,626.7px); animation-timing-function: cubic-bezier(.4,0,.6,1); } 50% { transform: translate(224.6px,678.1px); animation-timing-function: steps(1); } 50.004% { transform: translate(224.6px,678.1px); animation-timing-function: cubic-bezier(.4,0,.6,1); } 58.333% { transform: translate(224.6px,626.7px); animation-timing-function: cubic-bezier(.4,0,.6,1); } 66.667% { transform: translate(224.6px,678.1px); animation-timing-function: steps(1); } 66.671% { transform: translate(224.6px,678.1px); animation-timing-function: cubic-bezier(.4,0,.6,1); } 75% { transform: translate(224.6px,626.7px); animation-timing-function: cubic-bezier(.4,0,.6,1); } 83.333% { transform: translate(224.6px,678.1px); animation-timing-function: steps(1); } 83.337% { transform: translate(224.6px,678.1px); animation-timing-function: cubic-bezier(.4,0,.6,1); } 91.667% { transform: translate(224.6px,626.7px); animation-timing-function: cubic-bezier(.4,0,.6,1); } 100% { transform: translate(224.6px,678.1px); } }
@keyframes a4_t { 0% { transform: rotate(0deg) translate(-4.2px,-4.5px); } 16.667% { transform: rotate(360deg) translate(-4.2px,-4.5px); animation-timing-function: steps(1); } 16.671% { transform: rotate(0deg) translate(-4.2px,-4.5px); } 33.333% { transform: rotate(360deg) translate(-4.2px,-4.5px); animation-timing-function: steps(1); } 33.337% { transform: rotate(0deg) translate(-4.2px,-4.5px); } 50% { transform: rotate(360deg) translate(-4.2px,-4.5px); animation-timing-function: steps(1); } 50.004% { transform: rotate(0deg) translate(-4.2px,-4.5px); } 66.667% { transform: rotate(360deg) translate(-4.2px,-4.5px); animation-timing-function: steps(1); } 66.671% { transform: rotate(0deg) translate(-4.2px,-4.5px); } 83.333% { transform: rotate(360deg) translate(-4.2px,-4.5px); animation-timing-function: steps(1); } 83.337% { transform: rotate(0deg) translate(-4.2px,-4.5px); } 100% { transform: rotate(360deg) translate(-4.2px,-4.5px); } }
@keyframes a7_t { 0% { transform: translate(571.5px,573px); animation-timing-function: cubic-bezier(.4,0,.6,1); } 8.333% { transform: translate(571.5px,633.9px); animation-timing-function: cubic-bezier(.4,0,.6,1); } 16.667% { transform: translate(571.5px,573px); animation-timing-function: steps(1); } 16.671% { transform: translate(571.5px,573px); animation-timing-function: cubic-bezier(.4,0,.6,1); } 25% { transform: translate(571.5px,633.9px); animation-timing-function: cubic-bezier(.4,0,.6,1); } 33.333% { transform: translate(571.5px,573px); animation-timing-function: steps(1); } 33.337% { transform: translate(571.5px,573px); animation-timing-function: cubic-bezier(.4,0,.6,1); } 41.667% { transform: translate(571.5px,633.9px); animation-timing-function: cubic-bezier(.4,0,.6,1); } 50% { transform: translate(571.5px,573px); animation-timing-function: steps(1); } 50.004% { transform: translate(571.5px,573px); animation-timing-function: cubic-bezier(.4,0,.6,1); } 58.333% { transform: translate(571.5px,633.9px); animation-timing-function: cubic-bezier(.4,0,.6,1); } 66.667% { transform: translate(571.5px,573px); animation-timing-function: steps(1); } 66.671% { transform: translate(571.5px,573px); animation-timing-function: cubic-bezier(.4,0,.6,1); } 75% { transform: translate(571.5px,633.9px); animation-timing-function: cubic-bezier(.4,0,.6,1); } 83.333% { transform: translate(571.5px,573px); animation-timing-function: steps(1); } 83.337% { transform: translate(571.5px,573px); animation-timing-function: cubic-bezier(.4,0,.6,1); } 91.667% { transform: translate(571.5px,633.9px); animation-timing-function: cubic-bezier(.4,0,.6,1); } 100% { transform: translate(571.5px,573px); } }
@keyframes a6_t { 0% { transform: rotate(0deg) translate(-3.8px,-4px); } 16.667% { transform: rotate(-360deg) translate(-3.8px,-4px); animation-timing-function: steps(1); } 16.671% { transform: rotate(0deg) translate(-3.8px,-4px); } 33.333% { transform: rotate(-360deg) translate(-3.8px,-4px); animation-timing-function: steps(1); } 33.337% { transform: rotate(0deg) translate(-3.8px,-4px); } 50% { transform: rotate(-360deg) translate(-3.8px,-4px); animation-timing-function: steps(1); } 50.004% { transform: rotate(0deg) translate(-3.8px,-4px); } 66.667% { transform: rotate(-360deg) translate(-3.8px,-4px); animation-timing-function: steps(1); } 66.671% { transform: rotate(0deg) translate(-3.8px,-4px); } 83.333% { transform: rotate(-360deg) translate(-3.8px,-4px); animation-timing-function: steps(1); } 83.337% { transform: rotate(0deg) translate(-3.8px,-4px); } 100% { transform: rotate(-360deg) translate(-3.8px,-4px); } }
@keyframes a9_t { 0% { transform: translate(361.4px,54px); animation-timing-function: cubic-bezier(.4,0,.6,1); } 8.333% { transform: translate(361.4px,85px); animation-timing-function: cubic-bezier(.4,0,.6,1); } 16.667% { transform: translate(361.4px,54px); animation-timing-function: steps(1); } 16.671% { transform: translate(361.4px,54px); animation-timing-function: cubic-bezier(.4,0,.6,1); } 25% { transform: translate(361.4px,85px); animation-timing-function: cubic-bezier(.4,0,.6,1); } 33.333% { transform: translate(361.4px,54px); animation-timing-function: steps(1); } 33.337% { transform: translate(361.4px,54px); animation-timing-function: cubic-bezier(.4,0,.6,1); } 41.667% { transform: translate(361.4px,85px); animation-timing-function: cubic-bezier(.4,0,.6,1); } 50% { transform: translate(361.4px,54px); animation-timing-function: steps(1); } 50.004% { transform: translate(361.4px,54px); animation-timing-function: cubic-bezier(.4,0,.6,1); } 58.333% { transform: translate(361.4px,85px); animation-timing-function: cubic-bezier(.4,0,.6,1); } 66.667% { transform: translate(361.4px,54px); animation-timing-function: steps(1); } 66.671% { transform: translate(361.4px,54px); animation-timing-function: cubic-bezier(.4,0,.6,1); } 75% { transform: translate(361.4px,85px); animation-timing-function: cubic-bezier(.4,0,.6,1); } 83.333% { transform: translate(361.4px,54px); animation-timing-function: steps(1); } 83.337% { transform: translate(361.4px,54px); animation-timing-function: cubic-bezier(.4,0,.6,1); } 91.667% { transform: translate(361.4px,85px); animation-timing-function: cubic-bezier(.4,0,.6,1); } 100% { transform: translate(361.4px,54px); } }
@keyframes a8_t { 0% { transform: rotate(0deg) translate(-3.8px,-4px); animation-timing-function: cubic-bezier(.4,0,1,1); } 16.667% { transform: rotate(360deg) translate(-3.8px,-4px); animation-timing-function: steps(1); } 16.671% { transform: rotate(0deg) translate(-3.8px,-4px); animation-timing-function: cubic-bezier(.4,0,1,1); } 33.333% { transform: rotate(360deg) translate(-3.8px,-4px); animation-timing-function: steps(1); } 33.337% { transform: rotate(0deg) translate(-3.8px,-4px); animation-timing-function: cubic-bezier(.4,0,1,1); } 50% { transform: rotate(360deg) translate(-3.8px,-4px); animation-timing-function: steps(1); } 50.004% { transform: rotate(0deg) translate(-3.8px,-4px); animation-timing-function: cubic-bezier(.4,0,1,1); } 66.667% { transform: rotate(360deg) translate(-3.8px,-4px); animation-timing-function: steps(1); } 66.671% { transform: rotate(0deg) translate(-3.8px,-4px); animation-timing-function: cubic-bezier(.4,0,1,1); } 83.333% { transform: rotate(360deg) translate(-3.8px,-4px); animation-timing-function: steps(1); } 83.337% { transform: rotate(0deg) translate(-3.8px,-4px); animation-timing-function: cubic-bezier(.4,0,1,1); } 100% { transform: rotate(360deg) translate(-3.8px,-4px); } }
@keyframes a10_t { 0% { transform: translate(23.1px,337.7px) rotate(0deg) translate(-5.9px,-6.2px); animation-timing-function: cubic-bezier(.4,0,.6,1); } 8.333% { transform: translate(23.1px,377.7px) rotate(0deg) translate(-5.9px,-6.2px); animation-timing-function: cubic-bezier(.4,0,.6,1); } 16.667% { transform: translate(23.1px,337.7px) rotate(180deg) translate(-5.9px,-6.2px); animation-timing-function: steps(1); } 16.671% { transform: translate(23.1px,337.7px) rotate(0deg) translate(-5.9px,-6.2px); animation-timing-function: cubic-bezier(.4,0,.6,1); } 25% { transform: translate(23.1px,377.7px) rotate(0deg) translate(-5.9px,-6.2px); animation-timing-function: cubic-bezier(.4,0,.6,1); } 33.333% { transform: translate(23.1px,337.7px) rotate(180deg) translate(-5.9px,-6.2px); animation-timing-function: steps(1); } 33.337% { transform: translate(23.1px,337.7px) rotate(0deg) translate(-5.9px,-6.2px); animation-timing-function: cubic-bezier(.4,0,.6,1); } 41.667% { transform: translate(23.1px,377.7px) rotate(0deg) translate(-5.9px,-6.2px); animation-timing-function: cubic-bezier(.4,0,.6,1); } 50% { transform: translate(23.1px,337.7px) rotate(180deg) translate(-5.9px,-6.2px); animation-timing-function: steps(1); } 50.004% { transform: translate(23.1px,337.7px) rotate(0deg) translate(-5.9px,-6.2px); animation-timing-function: cubic-bezier(.4,0,.6,1); } 58.333% { transform: translate(23.1px,377.7px) rotate(0deg) translate(-5.9px,-6.2px); animation-timing-function: cubic-bezier(.4,0,.6,1); } 66.667% { transform: translate(23.1px,337.7px) rotate(180deg) translate(-5.9px,-6.2px); animation-timing-function: steps(1); } 66.671% { transform: translate(23.1px,337.7px) rotate(0deg) translate(-5.9px,-6.2px); animation-timing-function: cubic-bezier(.4,0,.6,1); } 75% { transform: translate(23.1px,377.7px) rotate(0deg) translate(-5.9px,-6.2px); animation-timing-function: cubic-bezier(.4,0,.6,1); } 83.333% { transform: translate(23.1px,337.7px) rotate(180deg) translate(-5.9px,-6.2px); animation-timing-function: steps(1); } 83.337% { transform: translate(23.1px,337.7px) rotate(0deg) translate(-5.9px,-6.2px); animation-timing-function: cubic-bezier(.4,0,.6,1); } 91.667% { transform: translate(23.1px,377.7px) rotate(0deg) translate(-5.9px,-6.2px); animation-timing-function: cubic-bezier(.4,0,.6,1); } 100% { transform: translate(23.1px,337.7px) rotate(180deg) translate(-5.9px,-6.2px); } }
@keyframes a11_t { 0% { transform: translate(351.7px,291px) rotate(0deg) translate(-207px,-206px); } 100% { transform: translate(351.7px,291px) rotate(-360deg) translate(-207px,-206px); } }
@keyframes a12_t { 0% { transform: translate(58.2px,436.8px) scale(1,1); } 70.833% { transform: translate(58.2px,436.8px) scale(1,1); animation-timing-function: cubic-bezier(.4,0,.6,1); } 91.667% { transform: translate(376.6px,.4px) scale(1,1); } 100% { transform: translate(376.6px,.4px) scale(1,1); } }
@keyframes a12_o { 0% { opacity: 0; } 70.833% { opacity: 0; } 75% { opacity: .8; } 87.5% { opacity: .8; } 91.667% { opacity: 0; } 100% { opacity: 0; } }
@keyframes a13_t { 0% { transform: translate(59.5px,436.1px) scale(1,1); } 41.667% { transform: translate(59.5px,436.1px) scale(1,1); animation-timing-function: cubic-bezier(.4,0,.6,1); } 62.5% { transform: translate(377.9px,-1.9px) scale(1,1); } 100% { transform: translate(377.9px,-1.9px) scale(1,1); } }
@keyframes a13_o { 0% { opacity: 0; } 41.667% { opacity: 0; } 45.833% { opacity: .8; } 58.333% { opacity: .8; } 62.5% { opacity: 0; } 100% { opacity: 0; } }
@keyframes a14_t { 0% { transform: translate(58px,436.2px) scale(1,1); animation-timing-function: cubic-bezier(.4,0,.6,1); } 20.833% { transform: translate(377.2px,.1px) scale(1,1); } 100% { transform: translate(377.2px,.1px) scale(1,1); } }
@keyframes a14_o { 0% { opacity: 0; } 4.167% { opacity: .8; } 16.667% { opacity: .8; } 20.833% { opacity: 0; } 100% { opacity: 0; } }
@keyframes a16_t { 0% { transform: translate(208.1px,206px) rotate(0deg); } 100% { transform: translate(208.1px,206px) rotate(360deg); } }
@keyframes a15_t { 0% { transform: scale(.8,.8); animation-timing-function: cubic-bezier(.4,0,.6,1); } 8.333% { transform: scale(.7,.7); animation-timing-function: cubic-bezier(.4,0,.6,1); } 16.667% { transform: scale(.8,.8); animation-timing-function: steps(1); } 16.671% { transform: scale(.8,.8); animation-timing-function: cubic-bezier(.4,0,.6,1); } 25% { transform: scale(.7,.7); animation-timing-function: cubic-bezier(.4,0,.6,1); } 33.333% { transform: scale(.8,.8); animation-timing-function: steps(1); } 33.337% { transform: scale(.8,.8); animation-timing-function: cubic-bezier(.4,0,.6,1); } 41.667% { transform: scale(.7,.7); animation-timing-function: cubic-bezier(.4,0,.6,1); } 50% { transform: scale(.8,.8); animation-timing-function: steps(1); } 50.004% { transform: scale(.8,.8); animation-timing-function: cubic-bezier(.4,0,.6,1); } 58.333% { transform: scale(.7,.7); animation-timing-function: cubic-bezier(.4,0,.6,1); } 66.667% { transform: scale(.8,.8); animation-timing-function: steps(1); } 66.671% { transform: scale(.8,.8); animation-timing-function: cubic-bezier(.4,0,.6,1); } 75% { transform: scale(.7,.7); animation-timing-function: cubic-bezier(.4,0,.6,1); } 83.333% { transform: scale(.8,.8); animation-timing-function: steps(1); } 83.337% { transform: scale(.8,.8); animation-timing-function: cubic-bezier(.4,0,.6,1); } 91.667% { transform: scale(.7,.7); animation-timing-function: cubic-bezier(.4,0,.6,1); } 100% { transform: scale(.8,.8); } }
@keyframes a17_d { 0% { d: path('M387.3,2.3L238.5,241L395.6,404'); animation-timing-function: cubic-bezier(.4,0,.6,1); } 20.833% { d: path('M387.1,2L153.9,381.4L398.3,413.9'); animation-timing-function: cubic-bezier(.4,0,.6,1); } 41.667% { d: path('M388,2.7L248.7,93.8L399.8,412.6'); animation-timing-function: cubic-bezier(.4,0,.6,1); } 62.5% { d: path('M387.9,1.6L134.6,97.1L400.1,413.2'); animation-timing-function: cubic-bezier(.4,0,.6,1); } 81.25% { d: path('M388.6,2.8L157.1,159.8L398.8,409.9'); animation-timing-function: cubic-bezier(.4,0,.6,1); } 100% { d: path('M387.3,2.3L238.5,241L395.6,404'); } }
@keyframes a18_d { 0% { d: path('M377.9,3L123.5,156.2L67.8,433.4'); animation-timing-function: cubic-bezier(.4,0,.6,1); } 20.833% { d: path('M377.9,3L88.1,109.8L67.8,432'); animation-timing-function: cubic-bezier(.4,0,.6,1); } 41.667% { d: path('M378.8,2L239.5,301.3L66,431.4'); animation-timing-function: cubic-bezier(.4,0,.6,1); } 62.5% { d: path('M377.9,3L424,312.4L66.2,432.5'); animation-timing-function: cubic-bezier(.4,0,.6,1); } 81.25% { d: path('M377.9,3L416.1,146.8L67.5,432.1'); animation-timing-function: cubic-bezier(.4,0,.6,1); } 100% { d: path('M377.9,3L123.5,156.2L67.8,433.4'); } }
@keyframes a19_t { 0% { transform: translate(124.5px,155.2px); animation-timing-function: cubic-bezier(.4,0,.6,1); } 20.833% { transform: translate(88.1px,109.8px); animation-timing-function: cubic-bezier(.4,0,.6,1); } 41.667% { transform: translate(239.5px,301.3px); animation-timing-function: cubic-bezier(.4,0,.6,1); } 62.5% { transform: translate(424px,312.4px); animation-timing-function: cubic-bezier(.4,0,.6,1); } 81.25% { transform: translate(416.1px,146.8px); animation-timing-function: cubic-bezier(.4,0,.6,1); } 100% { transform: translate(124.5px,155.2px); } }
@keyframes a20_t { 0% { transform: translate(208.1px,206px) rotate(0deg); } 100% { transform: translate(208.1px,206px) rotate(720deg); } }
@keyframes a21_t { 0% { transform: translate(221px,224.7px) rotate(0deg) translate(195.5px,-178.7px); } 100% { transform: translate(221px,224.7px) rotate(-360deg) translate(195.5px,-178.7px); } }
@keyframes a22_t { 0% { transform: translate(8.4px,70.2px); } 37.5% { transform: translate(8.4px,70.2px); animation-timing-function: cubic-bezier(.4,0,.6,1); } 58.333% { transform: translate(387.2px,17.2px); } 100% { transform: translate(387.2px,17.2px); } }
@keyframes a22_o { 0% { opacity: 0; } 37.5% { opacity: 0; animation-timing-function: cubic-bezier(.4,0,.6,1); } 41.667% { opacity: 1; animation-timing-function: cubic-bezier(.4,0,.6,1); } 54.167% { opacity: 1; animation-timing-function: cubic-bezier(.4,0,.6,1); } 58.333% { opacity: 0; } 100% { opacity: 0; } }
@keyframes a23_t { 0% { transform: translate(242px,251px) scale(.7,.7); animation-timing-function: cubic-bezier(.4,0,.6,1); } 20.833% { transform: translate(158px,388.6px) scale(.7,.7); animation-timing-function: cubic-bezier(.4,0,.6,1); } 41.667% { transform: translate(250.9px,106.5px) scale(.7,.7); animation-timing-function: cubic-bezier(.4,0,.6,1); } 62.5% { transform: translate(140px,108.9px) scale(.7,.7); animation-timing-function: cubic-bezier(.4,0,.6,1); } 81.25% { transform: translate(161.3px,171.3px) scale(.7,.7); animation-timing-function: cubic-bezier(.4,0,.6,1); } 100% { transform: translate(242px,251px) scale(.7,.7); } }
</style><title>Stroke 5</title><desc>Created with Sketch.</desc><title>Oval Copy 6</title><desc>Created with Sketch.</desc><title>Oval</title><desc>Created with Sketch.</desc><title>Group</title><desc>Created with Sketch.</desc><title>Oval</title><desc>Created with Sketch.</desc><title>Path 6</title><desc>Created with Sketch.</desc><title>Group</title><desc>Created with Sketch.</desc><title>Path 21</title><desc>Created with Sketch.</desc><g transform="translate(499,497.1) scale(.95,.95) translate(-371.3,-371.5)"><g transform="translate(409.4,411.6) translate(-410.6,-412.8)" style="animation: 24s linear infinite both a0_t;"><path d="M392.7 45c1.1 0 2-0.9 2-2c0-1.2-0.9-2-2-2c-1.1 0-2 .8-2 2c0 1.1 .9 2 2 2Zm74.8 3.8c1.1 0 2-0.9 2-2c0-1.1-0.9-2-2-2c-1.1 0-2 .9-2 2c0 1.1 .9 2 2 2Zm-148.8 7.4c1.1 0 2-0.9 2-2c0-1.1-0.9-2-2-2c-1.1 0-2 .9-2 2c0 1.1 .9 2 2 2Zm221.3 11.3c1.1 0 2-0.9 2-2c0-1.1-0.9-2-2-2c-1.1 0-2 .9-2 2c0 1.1 .9 2 2 2Zm-291.5 14.6c1.1 0 2-0.9 2-2c0-1.1-0.9-2-2-2c-1.1 0-2 .9-2 2c0 1.1 .9 2 2 2Zm358.7 18.5c1.1 0 2-0.9 2-2c0-1.1-0.9-2-2-2c-1.1 0-2 .9-2 2c0 1.1 .9 2 2 2Zm-422.3 21.1c1.1 0 2-0.8 2-2c0-1.1-0.9-2-2-2c-1.1 0-2 .9-2 2c0 1.2 .9 2 2 2Zm481.5 24.9c1.1 0 2-0.9 2-2c0-1.2-0.9-2-2-2c-1.2 0-2 .8-2 2c0 1.1 .8 2 2 2Zm-535.8 26.7c1.1 0 2-0.9 2-2c0-1.1-0.9-2-2-2c-1.1 0-2 .9-2 2c0 1.1 .9 2 2 2Zm584.5 30.1c1.1 0 2-0.9 2-2c0-1.1-0.9-2-2-2c-1.1 0-2 .9-2 2c0 1.1 .9 2 2 2Zm-627.4 31.3c1.1 0 2-0.9 2-2c0-1.1-0.9-2-2-2c-1.1 0-2 .9-2 2c0 1.1 .9 2 2 2Zm663.7 34.2c1.2 0 2-0.9 2-2c0-1.1-0.8-2-2-2c-1.1 0-2 .9-2 2c0 1.1 .9 2 2 2Zm-693.3 34.6c1.1 0 2-0.9 2-2c0-1.1-0.9-2-2-2c-1.1 0-2 .9-2 2c0 1.1 .9 2 2 2Zm715.7 36.9c1.1 0 2-0.9 2-2c0-1.1-0.9-2-2-2c-1.1 0-2 .9-2 2c0 1.1 .9 2 2 2Zm-730.7 36.5c1.1 0 2-0.9 2-2c0-1.1-0.9-2-2-2c-1.1 0-2 .9-2 2c0 1.1 .9 2 2 2Zm738.1 37.6c1.1 0 2-0.9 2-2c0-1.1-0.9-2-2-2c-1.1 0-2 .9-2 2c0 1.1 .9 2 2 2Zm-738.1 37.3c1.1 0 2-0.9 2-2c0-1.1-0.9-2-2-2c-1.2 0-2 .9-2 2c0 1.1 .8 2 2 2Zm730.6 37.2c1.1 0 2-0.9 2-2c0-1.1-0.9-2-2-2c-1.1 0-2 .9-2 2c0 1.1 .9 2 2 2Zm-715.7 36.1c1.1 0 2-0.9 2-2c0-1.1-0.9-2-2-2c-1.1 0-2 .9-2 2c0 1.1 .9 2 2 2Zm693.3 35.4c1.1 0 2-0.9 2-2c0-1.1-0.9-2-2-2c-1.1 0-2 .9-2 2c0 1.1 .9 2 2 2Zm-663.8 33.4c1.2 0 2-0.9 2-2c0-1.1-0.8-2-2-2c-1.1 0-2 .9-2 2c0 1.1 .9 2 2 2Zm627.4 32c1.1 0 2-0.9 2-2c0-1.1-0.9-2-2-2c-1.1 0-2 .9-2 2c0 1.1 .9 2 2 2Zm-584.5 29.5c1.1 0 2-0.9 2-2c0-1.1-0.9-2-2-2c-1.1 0-2 .9-2 2c0 1.1 .9 2 2 2Zm535.7 27.3c1.1 0 2-0.9 2-2c0-1.1-0.9-2-2-2c-1.1 0-2 .9-2 2c0 1.1 .9 2 2 2Zm-481.5 24.3c1.1 0 2-0.9 2-2c0-1.1-0.9-2-2-2c-1.1 0-2 .9-2 2c0 1.1 .9 2 2 2Zm422.3 21.6c1.1 0 2-0.9 2-2c0-1.1-0.9-2-2-2c-1.1 0-2 .9-2 2c0 1.1 .9 2 2 2Zm-358.8 18.1c1.1 0 2-0.9 2-2c0-1.1-0.9-2-2-2c-1.1 0-2 .9-2 2c0 1.1 .9 2 2 2Zm291.6 14.9c1.1 0 2-0.9 2-2c0-1.1-0.9-2-2-2c-1.1 0-2 .9-2 2c0 1.1 .9 2 2 2Zm-221.4 11.1c1.1 0 2-0.8 2-2c0-1.1-0.9-2-2-2c-1.1 0-2 .9-2 2c0 1.2 .9 2 2 2Zm148.9 7.6c1.1 0 2-0.9 2-2c0-1.1-0.9-2-2-2c-1.2 0-2 .9-2 2c0 1.1 .8 2 2 2Zm-74.8 3.7c1.1 0 2-0.9 2-2c0-1.1-0.9-2-2-2c-1.1 0-2 .9-2 2c0 1.1 .9 2 2 2Z" fill="#fff" fill-rule="evenodd"/></g><g transform="translate(40,41.2)"><ellipse fill="url(#Gradient-0)" rx="35" ry="35" fill-rule="evenodd" transform="translate(670,620.5)" style="animation: 24s linear infinite both a1_t;"/><g style="animation: 24s linear infinite both a3_t;"><g stroke-width="5" stroke="#79ffc5" fill="none" fill-rule="evenodd" stroke-linecap="round" stroke-linejoin="round" transform="translate(719,248) translate(-3.8,-4)" style="animation: 24s linear infinite both a2_t;"><path d="M7.6 0l-7.6 8"/><path d="M7.6 0l-7.6 8" transform="translate(3.8,4) scale(-1,1) translate(-3.8,-4)"/></g></g><g style="animation: 24s linear infinite both a5_t;"><g stroke-width="5" stroke="#79ffc5" fill="none" fill-rule="evenodd" stroke-linecap="round" stroke-linejoin="round" transform="translate(224.6,678.1) translate(-4.2,-4.5)" style="animation: 24s linear infinite both a4_t;"><path d="M8.5 0l-8.5 9"/><path d="M8.5 0l-8.5 9" transform="translate(4.2,4.5) scale(-1,1) translate(-4.2,-4.5)"/></g></g><g style="animation: 24s linear infinite both a7_t;"><g stroke-width="4" stroke="#79ffc5" fill="none" fill-rule="evenodd" stroke-linecap="round" stroke-linejoin="round" transform="translate(571.5,573) translate(-3.8,-4)" style="animation: 24s linear infinite both a6_t;"><path d="M7.6 0l-7.6 8"/><path d="M7.6 0l-7.6 8" transform="translate(3.8,4) scale(-1,1) translate(-3.8,-4)"/></g></g><g style="animation: 24s linear infinite both a9_t;"><g stroke-width="5" stroke="#79ffc5" fill="none" fill-rule="evenodd" stroke-linecap="round" stroke-linejoin="round" transform="translate(361.4,54) translate(-3.8,-4)" style="animation: 24s linear infinite both a8_t;"><path d="M7.6 0l-7.6 8"/><path d="M7.6 0l-7.6 8" transform="translate(3.8,4) scale(-1,1) translate(-3.8,-4)"/></g></g><g stroke-width="6" stroke="#79ffc5" fill="none" fill-rule="evenodd" stroke-linecap="round" stroke-linejoin="round" transform="translate(23.1,337.7) translate(-5.9,-6.2)" style="animation: 24s linear infinite both a10_t;"><path d="M11.7 0l-11.7 12.4"/><path d="M11.7 0l-11.7 12.4" transform="translate(5.9,6.2) scale(-1,1) translate(-5.9,-6.2)"/></g><g transform="translate(17.3,79)"><g transform="translate(351.7,291) translate(-207,-206)" style="animation: 24s linear infinite both a11_t;"><g fill="none" fill-rule="evenodd" transform="translate(193.6,197) scale(.981,.981) translate(-193,-202.2)"><path stroke="url(#Gradient-1)" stroke-width="4" stroke-linecap="round" stroke-linejoin="round" stroke-dasharray="1 7" d="M120.5 152.7l-129.9-101.7" opacity=".6" transform="translate(1,4.3)"/><path stroke="url(#Gradient-2)" stroke-width="3" d="M57.9 431.3l317.9-436" opacity=".6" transform="translate(1,4.3)"/><ellipse fill="#fff" rx="13" ry="13" opacity="0" transform="translate(58.2,436.8) scale(1.02,1.02)" style="animation: 24s linear infinite both a12_t, 24s linear infinite both a12_o;"/><ellipse fill="#fff" rx="13" ry="13" opacity="0" transform="translate(59.5,436.1) scale(1.02,1.02)" style="animation: 24s linear infinite both a13_t, 24s linear infinite both a13_o;"/><ellipse fill="#fff" rx="13" ry="13" opacity="0" transform="translate(58,436.2) scale(1.02,1.02)" style="animation: 24s linear infinite both a14_t, 24s linear infinite both a14_o;"/></g><path d="M0 0l-69.2-376" stroke="url(#Gradient-3)" fill="none" stroke-width="6" opacity=".7" transform="translate(64.6,427.5)"/><path d="M311.3-430.2l-380.5 54.2" stroke="url(#Gradient-4)" fill="none" stroke-width="4" transform="translate(64.6,427.5)"/><path d="M321.2-25l-11.2-403.4" stroke="url(#Gradient-5)" fill="none" stroke-width="6" transform="translate(64.6,427.5)"/><g style="animation: 24s linear infinite both a16_t;"><ellipse fill="url(#Gradient-6)" rx="206" ry="206" fill-rule="evenodd" opacity=".93" transform="translate(208.1,206) scale(.78,.78)" style="animation: 24s linear infinite both a15_t;"/></g><path stroke="url(#Gradient-7)" stroke-width="6" d="M387.3 2.3l-148.8 238.7l157.1 163" fill="none" transform="translate(-5.9,-4.2) scale(.981,.981)" style="animation: 24s linear infinite both a17_d;"/><g fill="none" fill-rule="evenodd" transform="translate(-4.2,-5.9)"><path stroke="url(#Gradient-8)" stroke-width="4" d="M377.9 3l-254.4 153.2l-55.7 277.2" style="animation: 24s linear infinite both a18_d;"/><ellipse fill="#fff" rx="8.5" ry="8.5" transform="translate(124.5,155.2)" style="animation: 24s linear infinite both a19_t;"/></g><ellipse stroke="url(#Gradient-9)" stroke-width="7" rx="264.4" ry="264.4" fill="none" transform="translate(208.1,206)" style="animation: 24s linear infinite both a20_t;"/><g transform="translate(-12.9,-18.7)"><ellipse fill="#fff" rx="7" ry="7" fill-rule="evenodd" transform="translate(221,224.7) translate(195.5,-178.7)" style="animation: 24s linear infinite both a21_t;"/><ellipse fill="#fff" rx="7.6" ry="7.6" fill-rule="evenodd" transform="translate(8.4,70.2) scale(.9,.9)"/><ellipse fill="#fff" rx="7.6" ry="7.6" fill-rule="evenodd" opacity="0" transform="translate(8.4,70.2)" style="animation: 24s linear infinite both a22_t, 24s linear infinite both a22_o;"/><ellipse fill="#fff" rx="17.2" ry="17.2" fill-rule="evenodd" transform="translate(387.2,17.2) scale(.7,.7)"/><ellipse fill="#fff" rx="13" ry="13" fill-rule="evenodd" transform="translate(75.6,445.1) scale(.8,.8)"/><ellipse fill="#fff" rx="14" ry="14" fill-rule="evenodd" transform="translate(242,251) scale(.7,.7)" style="animation: 24s linear infinite both a23_t;"/><ellipse cx="399" cy="420" fill="#fff" rx="8" ry="8" fill-rule="evenodd"/></g></g></g></g></g><title>Page 1</title><desc>Created with Sketch.</desc></svg>