<svg xmlns="http://www.w3.org/2000/svg" viewBox="0 0 153 153"><style>
@keyframes a0_o { 0% { opacity: 1; animation-timing-function: cubic-bezier(.4,0,.6,1); } 16.667% { opacity: .5; animation-timing-function: cubic-bezier(.4,0,.6,1); } 33.333% { opacity: 1; } 33.35% { opacity: 1; animation-timing-function: cubic-bezier(.4,0,.6,1); } 50% { opacity: .5; animation-timing-function: cubic-bezier(.4,0,.6,1); } 66.667% { opacity: 1; } 66.683% { opacity: 1; animation-timing-function: cubic-bezier(.4,0,.6,1); } 83.333% { opacity: .5; animation-timing-function: cubic-bezier(.4,0,.6,1); } 100% { opacity: 1; } }
@keyframes a1_t { 0% { transform: translate(76.5px,77px) rotate(0deg) translate(-71px,-71.5px); } 100% { transform: translate(76.5px,77px) rotate(360deg) translate(-71px,-71.5px); } }
@keyframes a2_o { 0% { opacity: .1; } 5% { opacity: 1; } 91.667% { opacity: 1; } 100% { opacity: .1; } }
@keyframes a2_da { 0% { stroke-dasharray: 0px 8px; } 100% { stroke-dasharray: 0px 12px; } }
@keyframes a3_o { 0% { opacity: .1; } 8.333% { opacity: 1; } 91.667% { opacity: 1; } 100% { opacity: .1; } }
@keyframes a3_da { 0% { stroke-dasharray: 0px 12px; } 100% { stroke-dasharray: 0px 8px; } }
</style><defs>
    <filter id="filter-2" x="-0.7%" y="-0.7%" width="101.4%" height="101.4%">
        <feGaussianBlur in="SourceGraphic"/></filter>
    <radialGradient id="Gradient-0" cx=".5" cy=".5" r=".5" fx=".5" fy=".5">
        <stop offset="0" stop-color="#5100ff" stop-opacity="0"/>
        <stop offset=".7" stop-color="#5100ff" stop-opacity="0"/>
        <stop offset=".8" stop-color="#5100ff" stop-opacity=".08"/>
        <stop offset="1" stop-color="#5100ff" stop-opacity=".46"/>
        <stop offset="1" stop-color="#5100ff" stop-opacity=".58"/></radialGradient>
    <linearGradient id="Gradient-1" x1=".1" y1=".2" x2=".8" y2=".9">
        <stop offset="0" stop-color="#03dac5"/><stop offset=".3" stop-color="#fff"/>
        <stop offset=".6" stop-color="#47ffb8"/><stop offset=".8" stop-color="#d5ccff"/>
        <stop offset="1" stop-color="#45ffd5"/></linearGradient>
    <linearGradient id="Gradient-2" x1="0" y1=".5" x2="1" y2=".5"><stop offset="0" stop-color="#79ffc5"/>
        <stop offset=".5" stop-color="#b29bff"/><stop offset="1" stop-color="#c4b4ff"/></linearGradient><linearGradient id="Gradient-3" x1=".5" y1="0" x2=".5" y2="1"><stop offset="0" stop-color="#5f59f7"/><stop offset=".2" stop-color="#4c4aef"/><stop offset="1" stop-color="#a283ff"/></linearGradient>
    <clipPath id="ClipPath-1"><rect x="58.5" y="-6.6" width="58.5" height="61.1"/></clipPath>
    <clipPath id="ClipPath-2"><rect x="58.5" y="-6.6" width="58.5" height="61.1"/></clipPath>
</defs><title>Oval</title><desc>Created with Sketch.</desc><g fill="none" fill-rule="evenodd"><ellipse fill="url(#Gradient-0)" rx="76.5" ry="76.5" transform="translate(76.5,77)" style="animation: 6s linear infinite both a0_o;"/></g><title>Oval</title><desc>Created with Sketch.</desc><g fill="none" fill-rule="evenodd" opacity=".74" transform="translate(76.5,77) translate(-71,-71.5)" style="animation: 6s linear infinite both a1_t;"><ellipse stroke="url(#Gradient-1)" stroke-width="2" filter="url(#filter-2)" rx="70" ry="70" transform="translate(71,71.5)"/></g><title>Oval Copy 3</title><desc>Created with Sketch.</desc><title>Oval Copy 3</title><desc>Created with Sketch.</desc><g fill="none" fill-rule="evenodd" transform="translate(21.5,56.5)"><ellipse stroke="url(#Gradient-2)" stroke-width=".8" stroke-linejoin="round" rx="54" ry="20" transform="translate(55,20.5)"/></g><title>Icon/warnin3</title><desc>Created with Sketch.</desc><g transform="translate(18,52.5)"><g clip-path="url(#ClipPath-1)"><path d="M59.5 48.5c32.3 0 58.5-10.7 58.5-24c0-13.3-26.2-24-58.5-24c-32.3 0-58.5 10.7-58.5 24c0 13.3 26.2 24 58.5 24Z" stroke="url(#Gradient-3)" stroke-linecap="round" stroke-linejoin="round" stroke-dasharray="0 8" fill="none" stroke-miterlimit="8" stroke-dashoffset="8" opacity=".1" transform="translate(58.5,24) rotate(180) translate(-59.5,-24.5)" style="animation: 6s linear infinite both a2_o, 6s linear infinite both a2_da;"/></g><g clip-path="url(#ClipPath-2)" transform="translate(58.5,24) scale(-1,1) translate(-58.5,-24)"><path d="M59.5 48.5c32.3 0 58.5-10.7 58.5-24c0-13.3-26.2-24-58.5-24c-32.3 0-58.5 10.7-58.5 24c0 13.3 26.2 24 58.5 24Z" stroke="url(#Gradient-3)" stroke-linecap="round" stroke-linejoin="round" stroke-dasharray="0 12" fill="none" stroke-dashoffset="8" opacity=".1" transform="translate(58.5,24) rotate(180) translate(-59.5,-24.5)" style="animation: 6s linear infinite both a3_o, 6s linear infinite both a3_da;"/></g></g><title>Group</title><desc>Created with Sketch.</desc><g fill="none" fill-rule="evenodd" stroke-linecap="round" stroke-linejoin="round" transform="translate(49,46.4)"><path d="M2 27.8c5.3-11.1 10.2-15 14.6-11.7c6.7 5 9.5 16.6 19.8 9.8c6.9-4.6 12.4-3.9 16.6 2" stroke="#fff" stroke-width="3"/><path d="M2 29c5.3-23.3 10.2-31.5 14.6-24.6c6.7 10.4 9.5 28.9 19.8 14.5c6.9-9.6 12.4-7.9 16.6 5.1" opacity=".19" stroke="#fff" stroke-width="3"/></g><title>motion</title><desc>Created with Sketch.</desc><title>Icon/warnin3 Copy</title><desc>Created with Sketch.</desc></svg>
