<svg xmlns="http://www.w3.org/2000/svg" width="16" height="16" viewBox="0 0 16 16">
    <g fill="none" fill-rule="evenodd">
        <path fill="#E5E5E5" d="M14 2c.733 0 1.333.593 1.333 1.333l-.006 8c0 .734-.594 1.334-1.327 1.334h-3.333V14H5.333v-1.333H2c-.74 0-1.333-.6-1.333-1.334v-8C.667 2.593 1.26 2 2 2zm0 1.333H2v8h12v-8zM8.533 4.667c.067 0 .123.047.134.114l.1.705c.164.067.31.156.45.261l.664-.266c.06-.02.13 0 .163.06l.534.923c.03.055.016.13-.034.17l-.563.438c.013.084.019.172.019.261 0 .092-.006.178-.017.261l.559.44c.052.038.066.108.033.169l-.533.922c-.034.061-.103.083-.164.061l-.664-.267c-.136.106-.286.195-.45.262l-.1.705c-.008.067-.064.114-.13.114H7.466c-.067 0-.12-.047-.134-.114l-.1-.705c-.164-.067-.31-.156-.45-.262l-.664.267c-.06.02-.13 0-.163-.061l-.534-.922c-.03-.056-.016-.13.034-.17l.563-.439C6.006 7.511 6 7.42 6 7.334c0-.087.011-.178.025-.262l-.564-.439c-.055-.039-.067-.11-.033-.17l.53-.921c.034-.061.103-.084.164-.061l.664.266c.136-.103.286-.194.45-.26l.1-.706c.011-.067.064-.114.13-.114zM8 6.333c-.55 0-1 .45-1 1s.45 1 1 1 1-.45 1-1-.45-1-1-1z"/>
        <path d="M0 0L16 0 16 16 0 16z"/>
    </g>
</svg>
