<?xml version="1.0" encoding="UTF-8"?>
<svg width="47px" height="46px" viewBox="0 0 47 46" version="1.1" xmlns="http://www.w3.org/2000/svg" xmlns:xlink="http://www.w3.org/1999/xlink">
    <!-- Generator: sketchtool 59.1 (101010) - https://sketch.com -->
    <title>0D362D05-296B-4B3C-B1D6-6911F5135926</title>
    <desc>Created with sketchtool.</desc>
    <defs>
        <circle id="path-1" cx="23" cy="23" r="23"></circle>
        <filter x="-47.8%" y="-23.9%" width="195.7%" height="195.7%" filterUnits="objectBoundingBox" id="filter-2">
            <feOffset dx="0" dy="11" in="SourceAlpha" result="shadowOffsetOuter1"></feOffset>
            <feGaussianBlur stdDeviation="5.5" in="shadowOffsetOuter1" result="shadowBlurOuter1"></feGaussianBlur>
            <feColorMatrix values="0 0 0 0 0   0 0 0 0 0   0 0 0 0 0  0 0 0 0.3 0" type="matrix" in="shadowBlurOuter1"></feColorMatrix>
        </filter>
    </defs>
    <g id="Page-1" stroke="none" stroke-width="1" fill="none" fill-rule="evenodd" opacity="0.2">
        <g id="05_Workloads_Deployment" transform="translate(-727.000000, -1008.000000)">
            <g id="04.Btn/07.Refresh/01.Inactive" transform="translate(727.000000, 1008.000000)">
                <g transform="translate(1.000000, 0.000000)">
                    <g id="Oval">
                        <use fill="black" fill-opacity="1" filter="url(#filter-2)" xlink:href="#path-1"></use>
                        <use fill="#FFFFFF" fill-rule="evenodd" xlink:href="#path-1"></use>
                    </g>
                    <g id="noun_reset_1033424" transform="translate(13.800000, 10.350000)">
                        <g id="Group">
                            <path d="M17.7807025,12.9596488 C17.7807025,17.8863851 13.8170875,21.85 8.89035123,21.85 C3.96361492,21.85 3.55271368e-14,17.8863851 3.55271368e-14,12.9596488 C3.55271368e-14,8.03291247 3.96361492,4.06929755 8.89035123,4.06929755" id="Path" stroke="#000000" stroke-width="3" stroke-linecap="round" stroke-linejoin="round"></path>
                            <path d="M13.668915,4.03225442 L9.77938635,0.105682624 C9.55712757,-0.116576157 9.14965314,0.0315963633 9.14965314,0.364984534 L9.14965314,8.21812812 C9.14965314,8.55151629 9.55712757,8.69968881 9.77938635,8.47743003 L13.7059581,4.55085824 C13.8170875,4.40268572 13.8170875,4.18042694 13.668915,4.03225442 Z" id="Path" fill="#000000" fill-rule="nonzero"></path>
                        </g>
                    </g>
                </g>
            </g>
        </g>
    </g>
</svg>