<?xml version="1.0" encoding="UTF-8"?>
<svg width="22px" height="23px" viewBox="0 0 22 23" version="1.1" xmlns="http://www.w3.org/2000/svg" xmlns:xlink="http://www.w3.org/1999/xlink">
    <!-- Generator: sketchtool 58 (101010) - https://sketch.com -->
    <title>1F5B3341-6A9D-4E61-9B1E-1896D9CFCA13</title>
    <desc>Created with sketchtool.</desc>
    <g id="Symbols" stroke="none" stroke-width="1" fill="none" fill-rule="evenodd">
        <g id="08.Icon/09.Setting/01.Dashboard/01.Unselected/06.Save" fill="#fff" fill-rule="nonzero">
            <g id="08.Icon/09.Setting/01.Dashboard/06.Save">
                <path d="M16.8333333,0 L2.83333333,0 C1.54416667,0 0.5,1.04416667 0.5,2.33333333 L0.5,18.6666667 C0.5,19.9558333 1.54416667,21 2.83333333,21 L19.1666667,21 C20.4558333,21 21.5,19.9558333 21.5,18.6666667 L21.5,4.66666667 L16.8333333,0 Z M11,18.6666667 C9.06916667,18.6666667 7.5,17.0975 7.5,15.1666667 C7.5,13.2358333 9.06916667,11.6666667 11,11.6666667 C12.9308333,11.6666667 14.5,13.2358333 14.5,15.1666667 C14.5,17.0975 12.9308333,18.6666667 11,18.6666667 Z M14.5,7 L2.83333333,7 L2.83333333,2.33333333 L14.5,2.33333333 L14.5,7 Z" id="Shape"></path>
            </g>
        </g>
    </g>
</svg>
