<?xml version="1.0" encoding="UTF-8"?>
<svg width="8px" height="10px" viewBox="0 0 8 10" version="1.1" xmlns="http://www.w3.org/2000/svg" xmlns:xlink="http://www.w3.org/1999/xlink">
    <!-- Generator: sketchtool 58 (101010) - https://sketch.com -->
    <title>8723A2A1-C6FF-44A7-87BD-8D9DC842CE33</title>
    <desc>Created with sketchtool.</desc>
    <g id="Symbols" stroke="none" stroke-width="1" fill="none" fill-rule="evenodd">
        <g id="08.Icon/05.Service/01.Overview/01.Window/02.Selected/01.Lock" fill="#FFFFFF" fill-rule="nonzero">
            <g id="Shape">
                <path d="M6.66666667,3.33333333 L6.19047619,3.33333333 L6.19047619,2.38095238 C6.19047619,1.06666667 5.12380952,0 3.80952381,0 C2.4952381,0 1.42857143,1.06666667 1.42857143,2.38095238 L1.42857143,3.33333333 L0.952380952,3.33333333 C0.426190476,3.33333333 0,3.75952381 0,4.28571429 L0,9.04761905 C0,9.57380952 0.426190476,10 0.952380952,10 L6.66666667,10 C7.19285714,10 7.61904762,9.57380952 7.61904762,9.04761905 L7.61904762,4.28571429 C7.61904762,3.75952381 7.19285714,3.33333333 6.66666667,3.33333333 Z M3.80952381,7.61904762 C3.28333333,7.61904762 2.85714286,7.19285714 2.85714286,6.66666667 C2.85714286,6.14047619 3.28333333,5.71428571 3.80952381,5.71428571 C4.33571429,5.71428571 4.76190476,6.14047619 4.76190476,6.66666667 C4.76190476,7.19285714 4.33571429,7.61904762 3.80952381,7.61904762 Z M5.28571429,3.33333333 L2.33333333,3.33333333 L2.33333333,2.38095238 C2.33333333,1.56666667 2.9952381,0.904761905 3.80952381,0.904761905 C4.62380952,0.904761905 5.28571429,1.56666667 5.28571429,2.38095238 L5.28571429,3.33333333 Z"></path>
            </g>
        </g>
    </g>
</svg>