<?xml version="1.0" encoding="UTF-8"?>
<svg width="24px" height="24px" viewBox="0 0 24 24" version="1.1" xmlns="http://www.w3.org/2000/svg" xmlns:xlink="http://www.w3.org/1999/xlink">
    <!-- Generator: Sketch 57.1 (83088) - https://sketch.com -->
    <title>08.Icon/03.Sidemenu/08.Setting/01.Unselected</title>
    <desc>Created with Sketch.</desc>
    <g id="08.Icon/03.Sidemenu/08.Setting/01.Unselected" stroke="none" stroke-width="1" fill="none" fill-rule="evenodd">
        <path d="M15.27625,13.745 C14.62875,14.96 13.3725,15.71375 11.99375,15.71375 C11.385,15.71375 10.8,15.56625 10.255,15.2775 C8.44875,14.315 7.76125,12.06125 8.72375,10.25625 C9.37,9.04125 10.62875,8.2875 12.0075,8.2875 C12.615,8.2875 13.2,8.435 13.74375,8.72375 C15.55125,9.68625 16.23875,11.94 15.27625,13.745 L15.27625,13.745 Z M19.6975,18.71625 L21.73875,15.0825 L19.4375,12.90875 C19.54,12.06875 19.50125,11.225 19.32375,10.4125 L21.415,8.03875 L19.05,4.6075 L16.08625,5.71875 C15.905,5.6 15.71875,5.48625 15.525,5.3825 C15.30375,5.265 15.07875,5.17 14.85125,5.075 L14.08375,2 L9.91625,2 L9.15,5.07 C8.5075,5.33375 7.9,5.68375 7.34875,6.11875 L4.3025,5.285 L2.26125,8.91875 L4.5625,11.0925 C4.46,11.9325 4.49875,12.77625 4.67625,13.58875 L2.585,15.9625 L4.95,19.39375 L7.9125,18.2825 C8.095,18.40125 8.28,18.515 8.475,18.61875 C8.695,18.73625 8.92125,18.83125 9.14875,18.92625 L9.91625,22 L14.08375,22 L14.85,18.93125 C15.4925,18.6675 16.1,18.3175 16.6525,17.8825 L19.6975,18.71625 Z" stroke="#FFFFFF"></path>
    </g>
</svg>