<svg xmlns="http://www.w3.org/2000/svg" width="16" height="16" viewBox="0 0 16 16">
    <path fill="#FFF" fill-rule="evenodd" d="M13 10.842c.552 0 1 .448 1 1V13c0 .552-.448 1-1 1H3c-.552 0-1-.448-1-1v-1.158c0-.552.448-1 1-1h10zm-.932.947h-.074c-.349 0-.632.283-.632.632 0 .349.283.632.632.632h.074c.349 0 .632-.283.632-.632 0-.349-.283-.632-.632-.632zM13 6.421c.552 0 1 .448 1 1V8.58c0 .552-.448 1-1 1H3c-.552 0-1-.448-1-1V7.42c0-.552.448-1 1-1h10zm-.932.947h-.074c-.349 0-.632.283-.632.632 0 .349.283.632.632.632h.074c.349 0 .632-.283.632-.632 0-.349-.283-.632-.632-.632zM13 2c.552 0 1 .448 1 1v1.158c0 .552-.448 1-1 1H3c-.552 0-1-.448-1-1V3c0-.552.448-1 1-1h10zm-.932.947h-.074c-.349 0-.632.283-.632.632 0 .349.283.632.632.632h.074c.349 0 .632-.283.632-.632 0-.349-.283-.632-.632-.632z"/>
</svg>
