<?xml version="1.0" encoding="utf-8"?>
<!-- Generator: Adobe Illustrator 24.0.3, SVG Export Plug-In . SVG Version: 6.00 Build 0)  -->
<svg version="1.1" id="Layer_1" xmlns="http://www.w3.org/2000/svg" xmlns:xlink="http://www.w3.org/1999/xlink" x="0px" y="0px"
	 viewBox="0 0 432.7 109.4" style="enable-background:new 0 0 432.7 109.4;" xml:space="preserve">
<style type="text/css">
	.st0{opacity:0.6;fill:#FFFFFF;}
	.st1{fill:#FFFFFF;}
	.st2{fill:url(#SVGID_1_);}
</style>
<path class="st0" d="M329.1,25.4h-31.6v79.1h0.3h12.3h0V84.7V73.1v-36h19c9.2,0,16.6,8.1,16.6,18c0,9.9-7.4,18-16.6,18h-7.8
	l-11.1,11.7h19c15.1,0,27.4-13.4,27.4-29.7v0C356.5,38.8,344.2,25.4,329.1,25.4z"/>
<path class="st0" d="M406.9,50.9h-25.5c-3.4,0-6.1-2.7-6.1-6.1c0-3.3,2.7-6.1,6.1-6.1h29l9.6-11.7h-38.6c-9.8,0-17.8,7.9-17.8,17.7
	c0,9.8,8,17.7,17.8,17.7h25.5c3.4,0,6.1,2.7,6.1,6.1c0,3.3-2.7,6.1-6.1,6.1h-30.1L366,86.4h40.9c9.8,0,17.8-8,17.8-17.7
	C424.7,58.9,416.8,50.9,406.9,50.9z"/>
<rect x="182.7" y="11.1" class="st1" width="13.5" height="75.3"/>
<path class="st1" d="M8.5,11.1"/>
<polygon class="st1" points="83.9,11.1 67,11.1 8.6,86.4 25.5,86.4 46.2,59.6 67,86.4 83.9,86.4 54.7,48.7 "/>
<linearGradient id="SVGID_1_" gradientUnits="userSpaceOnUse" x1="41.9018" y1="56.1446" x2="19.289" y2="10.919">
	<stop  offset="0" style="stop-color:#FFFFFF"/>
	<stop  offset="1" style="stop-color:#E60012"/>
</linearGradient>
<polygon class="st2" points="37.5,40.9 37.3,25.5 25.7,11.1 15.6,11.1 8.6,11.1 37.5,47.3 "/>
<path class="st0" d="M275.4,19.7c-15.2-15.2-40-15.2-55.2,0c-15.2,15.2-15.2,40,0,55.2c15.2,15.2,40,15.2,55.2,0
	C290.6,59.7,290.6,34.9,275.4,19.7z M267,66.5c-10.6,10.6-27.8,10.6-38.3,0c-10.6-10.6-10.6-27.8,0-38.3c10.6-10.6,27.8-10.6,38.3,0
	C277.5,38.7,277.5,55.9,267,66.5z"/>
<polygon class="st1" points="137.9,11.5 137.7,11.1 124.1,11.1 92,86.4 105.3,86.4 130.9,27.9 151.3,74.4 136.9,74.4 131.5,86.4 
	156.6,86.4 158.5,86.4 171,86.4 "/>
</svg>
