<?xml version="1.0" encoding="utf-8"?>
<!-- Generator: Adobe Illustrator 24.1.0, SVG Export Plug-In . SVG Version: 6.00 Build 0)  -->
<svg version="1.1" id="Layer_1" xmlns="http://www.w3.org/2000/svg" xmlns:xlink="http://www.w3.org/1999/xlink" x="0px" y="0px"
	 viewBox="0 0 279.3 84.1" style="enable-background:new 0 0 279.3 84.1;" xml:space="preserve">
<style type="text/css">
	.st0{fill:#FFFFFF;}
</style>
<path class="st0" d="M88.5,2.9h-11l-22.1,59h10.7l5.1-15h23.2l5.3,15h10.7L88.5,2.9z M91.8,38.9H73.9l8.9-26.2L91.8,38.9z"/>
<path class="st0" d="M126.5,61.9h-10.1v-59h10.1V61.9z"/>
<path class="st0" d="M163.3,62.9c-8.5,0-15.3-2.8-20.4-8.3c-5.1-5.5-7.7-12.7-7.7-21.5c0-9.5,2.6-17.1,7.8-22.7
	c5.2-5.7,12.3-8.5,21.2-8.5c8.3,0,15,2.7,20,8.2c5.1,5.5,7.6,12.7,7.6,21.5c0,9.6-2.6,17.3-7.8,22.9
	C178.9,60.1,171.9,62.9,163.3,62.9z M163.7,10.5c-5.4,0-9.8,2-13.2,6.1c-3.4,4-5.1,9.3-5.1,15.9c0,6.6,1.6,11.8,4.9,15.9
	s7.6,6,12.9,6c5.7,0,10.1-1.9,13.4-5.7c3.3-3.8,4.9-9.2,4.9-16c0-7.1-1.6-12.5-4.8-16.3C173.7,12.4,169.3,10.5,163.7,10.5z"/>
<g>
	<polygon class="st0" points="24,14.8 16,2.9 3.1,2.9 17.5,23.9 	"/>
	<polygon class="st0" points="55.6,2.9 43.8,2.9 1.4,61.9 14.2,61.9 29,40.8 43.4,61.9 55.4,61.9 35.3,31.8 	"/>
</g>
<path class="st0" d="M207.1,55.3c2.2,4.4,6.8,7.5,12.1,7.6c6.5,0,11.6-2,15.4-6c3.9-4,5.8-9.5,5.8-16.6c0-6.5-1.9-11.7-5.6-15.7
	c-3.5-3.7-8-5.6-13.6-5.9l0,0c-6.3,0-11.7,3.7-14.2,9v-8h-8.6v62.4h8.6L207.1,55.3z M211.3,30.1c1.9-2.5,4.7-3.7,8.3-3.7
	c3.5,0,6.3,1.3,8.4,3.8c2.1,2.5,3.2,6,3.2,10.4c0,4.6-1,8.2-3.1,10.8c-2.1,2.6-4.9,3.9-8.5,3.9c-3.6,0-6.4-1.3-8.3-3.8
	c-1.9-2.5-2.9-6.1-2.9-10.7C208.4,36.1,209.3,32.6,211.3,30.1z"/>
<path class="st0" d="M245.6,60.6c3.5,1.5,7.7,2.3,12.5,2.3c2.5,0,4.8-0.3,7.1-0.8c2.2-0.5,4.2-1.3,5.9-2.3c1.7-1,3.1-2.4,4.1-4
	s1.5-3.5,1.5-5.6c0-1.8-0.3-3.3-0.9-4.5c-0.6-1.3-1.4-2.4-2.4-3.4c-1.1-1-2.3-1.8-3.8-2.6c-1.5-0.8-3.2-1.5-5.1-2.3
	c-1.4-0.5-2.7-0.9-3.8-1.3c-1.1-0.4-2-0.8-2.8-1.3c-0.8-0.5-1.4-1-1.8-1.7s-0.6-1.4-0.6-2.3c0-0.7,0.2-1.4,0.6-2
	c0.4-0.6,1-1.1,1.7-1.6s1.6-0.8,2.6-1c1-0.2,2.2-0.4,3.4-0.4c2.4,0,4.7,0.4,6.8,1.1l0,0c0,0,2.1-3.4,3.8-6.2v-0.2
	c-3.2-1.2-6.8-1.8-10.9-1.8c-2.3,0-4.5,0.3-6.6,0.8c-2.1,0.5-4.1,1.3-5.7,2.4c-1.7,1.1-3,2.4-4,3.9c-1,1.6-1.5,3.3-1.5,5.4
	c0,1.6,0.2,3.1,0.7,4.3c0.5,1.2,1.2,2.3,2.2,3.3c1,1,2.2,1.8,3.6,2.6c1.4,0.8,3.1,1.5,4.9,2.2c1.5,0.5,2.8,1,4,1.4
	c1.2,0.4,2.2,0.9,3.1,1.4c0.9,0.5,1.6,1.1,2.1,1.8c0.5,0.7,0.8,1.5,0.8,2.4c0,3.4-3,5.1-9,5.1c-3,0-5.8-0.6-8.4-1.8L245.6,60.6z"/>
</svg>
