<svg xmlns="http://www.w3.org/2000/svg" xmlns:xlink="http://www.w3.org/1999/xlink" width="18" height="18" viewBox="0 0 18 18">
    <defs>
        <circle id="prefix__a" cx="7.5" cy="7.5" r="7.5"/>
    </defs>
    <g fill="none" fill-rule="evenodd">
        <g transform="translate(-2 -2) rotate(45 5.025 13.475)">
            <mask id="prefix__b" fill="#fff">
                <use xlink:href="#prefix__a"/>
            </mask>
            <use fill="#FF1F3F" xlink:href="#prefix__a"/>
            <path fill="#5F59F7" d="M-1.5 7.5H7.5V16.5H-1.5z" mask="url(#prefix__b)"/>
            <path fill="#5BBC25" d="M-1.5 -1.5H7.5V7.5H-1.5z" mask="url(#prefix__b)"/>
            <path fill="#F8CB0D" d="M7.5 7.5H16.5V16.5H7.5z" mask="url(#prefix__b)"/>
            <path fill="#AAA9EF" d="M7.5 -1.5H16.5V7.5H7.5z" mask="url(#prefix__b)"/>
            <circle cx="7.5" cy="7.5" r="3.75" fill="#FFF" mask="url(#prefix__b)"/>
        </g>
        <path fill="#191919" d="M11 16.25c-2.898 0-5.25-2.352-5.25-5.25S8.102 5.75 11 5.75s5.25 2.352 5.25 5.25-2.352 5.25-5.25 5.25zm.016-6.982c.326 0 .59-.265.59-.591 0-.326-.264-.59-.59-.59-.326 0-.59.264-.59.59 0 .326.264.59.59.59zm-.541 4.725h1.05v-3.938h-.918v-.003h-.788V11.1h.656v2.893zm-1.05-.003h1.047v-1.047H9.425v1.047zm2.103 0h1.047v-1.047h-1.047v1.047z" transform="translate(-2 -2)"/>
    </g>
</svg>
