<?xml version="1.0" encoding="UTF-8"?>
<svg width="16px" height="16px" viewBox="0 0 16 16" version="1.1" xmlns="http://www.w3.org/2000/svg" xmlns:xlink="http://www.w3.org/1999/xlink">
    <!-- Generator: sketchtool 63.1 (101010) - https://sketch.com -->
    <title>90DD1616-F740-42D0-A511-AC0E420D3570</title>
    <desc>Created with sketchtool.</desc>
    <g id="symbol" stroke="none" stroke-width="1" fill="none" fill-rule="evenodd">
        <g id="Icon-/-configuration">
            <g id="settings-24px">
                <polygon id="Path" points="0 0 16 0 16 16 0 16"></polygon>
                <path d="M12.76,8.62666667 C12.7866667,8.42666667 12.8,8.22 12.8,8 C12.8,7.78666667 12.7866667,7.57333333 12.7533333,7.37333333 L14.1066667,6.32 C14.2266667,6.22666667 14.26,6.04666667 14.1866667,5.91333333 L12.9066667,3.7 C12.8266667,3.55333333 12.66,3.50666667 12.5133333,3.55333333 L10.92,4.19333333 C10.5866667,3.94 10.2333333,3.72666667 9.84,3.56666667 L9.6,1.87333333 C9.57333333,1.71333333 9.44,1.6 9.28,1.6 L6.72,1.6 C6.56,1.6 6.43333333,1.71333333 6.40666667,1.87333333 L6.16666667,3.56666667 C5.77333333,3.72666667 5.41333333,3.94666667 5.08666667,4.19333333 L3.49333333,3.55333333 C3.34666667,3.5 3.18,3.55333333 3.1,3.7 L1.82666667,5.91333333 C1.74666667,6.05333333 1.77333333,6.22666667 1.90666667,6.32 L3.26,7.37333333 C3.22666667,7.57333333 3.2,7.79333333 3.2,8 C3.2,8.20666667 3.21333333,8.42666667 3.24666667,8.62666667 L1.89333333,9.68 C1.77333333,9.77333333 1.74,9.95333333 1.81333333,10.0866667 L3.09333333,12.3 C3.17333333,12.4466667 3.34,12.4933333 3.48666667,12.4466667 L5.08,11.8066667 C5.41333333,12.06 5.76666667,12.2733333 6.16,12.4333333 L6.4,14.1266667 C6.43333333,14.2866667 6.56,14.4 6.72,14.4 L9.28,14.4 C9.44,14.4 9.57333333,14.2866667 9.59333333,14.1266667 L9.83333333,12.4333333 C10.2266667,12.2733333 10.5866667,12.06 10.9133333,11.8066667 L12.5066667,12.4466667 C12.6533333,12.5 12.82,12.4466667 12.9,12.3 L14.18,10.0866667 C14.26,9.94 14.2266667,9.77333333 14.1,9.68 L12.76,8.62666667 Z M8,10.4 C6.68,10.4 5.6,9.32 5.6,8 C5.6,6.68 6.68,5.6 8,5.6 C9.32,5.6 10.4,6.68 10.4,8 C10.4,9.32 9.32,10.4 8,10.4 Z" id="Shape" fill="#fff"></path>
            </g>
        </g>
    </g>
</svg>
