<svg xmlns="http://www.w3.org/2000/svg" xmlns:xlink="http://www.w3.org/1999/xlink" width="14" height="14" viewBox="0 0 14 14">
    <defs>
        <path id="prefix__a" d="M7 2.625c-2.784 0-5.162 1.732-6.125 4.176.963 2.445 3.34 4.176 6.125 4.176 2.784 0 5.162-1.731 6.125-4.176C12.162 4.357 9.785 2.625 7 2.625zm0 6.96c-1.537 0-2.784-1.247-2.784-2.784 0-1.537 1.247-2.784 2.784-2.784 1.537 0 2.784 1.247 2.784 2.784 0 1.537-1.247 2.784-2.784 2.784zm0-4.454c-.924 0-1.67.746-1.67 1.67 0 .924.746 1.67 1.67 1.67.924 0 1.67-.746 1.67-1.67 0-.924-.746-1.67-1.67-1.67z"/>
    </defs>
    <g fill="none" fill-rule="evenodd">
        <use fill="#E5E5E5" xlink:href="#prefix__a"/>
    </g>
</svg>
