<?xml version="1.0" encoding="UTF-8"?>
<svg width="23px" height="23px" viewBox="0 0 23 23" version="1.1" xmlns="http://www.w3.org/2000/svg" xmlns:xlink="http://www.w3.org/1999/xlink">
    <!-- Generator: sketchtool 58 (101010) - https://sketch.com -->
    <title>669180D6-A97B-43AA-9C31-DBB27E7FA642</title>
    <desc>Created with sketchtool.</desc>
    <g id="Symbols" stroke="none" stroke-width="1" fill="none" fill-rule="evenodd">
        <g id="08.Icon/09.Setting/01.Dashboard/01.Unselected/04.Donut_Chart" fill="#656568">
            <g id="08.Icon/09.Setting/01.Dashboard/04.Donut_Chart" transform="translate(0.500000, 0.500000)">
                <path d="M10.9451642,19.7014925 C6.10943284,19.7014925 2.18883582,15.7808955 2.18883582,10.9451642 C2.18883582,6.10943284 6.10943284,2.18883582 10.9451642,2.18883582 L10.9451642,0 C4.89976119,0 0,4.89976119 0,10.9451642 C0,16.9895821 4.89976119,21.8903284 10.9451642,21.8903284 C16.9895821,21.8903284 21.8903284,16.9895821 21.8903284,10.9451642 L19.7014925,10.9451642 C19.7014925,15.7808955 15.7808955,19.7014925 10.9451642,19.7014925" id="Fill-1"></path>
                <path d="M10.9451642,8.756 C9.73614925,8.756 8.756,9.73614925 8.756,10.9451642 C8.756,12.1541791 9.73614925,13.1343284 10.9451642,13.1343284 C11.5503284,13.1343284 12.0973731,12.8893731 12.4930448,12.4930448 L10.9451642,10.9451642 L10.9451642,8.756 Z" id="Fill-3"></path>
                <path d="M10.9451642,15.3231642 C8.52746269,15.3231642 6.56716418,13.3628657 6.56716418,10.9451642 C6.56716418,8.52746269 8.52746269,6.56716418 10.9451642,6.56716418 L10.9451642,4.378 C7.31746269,4.378 4.378,7.31746269 4.378,10.9451642 C4.378,14.5718806 7.31746269,17.5123284 10.9451642,17.5123284 C14.5718806,17.5123284 17.5123284,14.5718806 17.5123284,10.9451642 C17.5123284,9.13131343 16.7771343,7.49050746 15.5884776,6.30185075 L14.040597,7.84973134 C14.832597,8.64041791 15.3231642,9.73516418 15.3231642,10.9451642 C15.3231642,13.3628657 13.3628657,15.3231642 10.9451642,15.3231642" id="Fill-5"></path>
            </g>
        </g>
    </g>
</svg>