<?xml version="1.0" encoding="UTF-8"?>
<svg width="23px" height="23px" viewBox="0 0 23 23" version="1.1" xmlns="http://www.w3.org/2000/svg" xmlns:xlink="http://www.w3.org/1999/xlink">
    <!-- Generator: sketchtool 58 (101010) - https://sketch.com -->
    <title>66F8E0B6-96DF-439D-A16A-CD2E067D5809</title>
    <desc>Created with sketchtool.</desc>
    <g id="Symbols" stroke="none" stroke-width="1" fill="none" fill-rule="evenodd">
        <g id="08.Icon/09.Setting/01.Dashboard/01.Unselected/03.Pie_Chart" fill="#fff">
            <g id="08.Icon/09.Setting/01.Dashboard/03.Pie_Chart" transform="translate(0.500000, 0.500000)">
                <path d="M11.6874101,2.57571742e-14 L11.6874101,9.88951298 L21.5769231,9.88951298 C21.5769231,4.42677548 17.1501476,2.57571742e-14 11.6874101,2.57571742e-14" id="Fill-1"></path>
                <path d="M17.7796274,13.4855769 C16.9597043,17.0835288 13.7331451,19.7787563 9.88948601,19.7787563 C8.93767399,19.7787563 8.02901582,19.6045226 7.17996389,19.3010971 L9.5901062,13.4855769 L17.7796274,13.4855769 Z M9.88948601,1.79816683 C4.42674851,1.79816683 -2.69711561e-05,6.2246726 -2.69711561e-05,11.6874101 C-2.69711561e-05,17.1501476 4.42674851,21.5769231 9.88948601,21.5769231 C15.3522235,21.5769231 19.7787293,17.1501476 19.7787293,11.6874101 L9.88948601,11.6874101 L9.88948601,1.79816683 Z" id="Fill-3"></path>
            </g>
        </g>
    </g>
</svg>
