<?xml version="1.0" encoding="UTF-8"?>
<svg width="20px" height="23px" viewBox="0 0 20 23" version="1.1" xmlns="http://www.w3.org/2000/svg" xmlns:xlink="http://www.w3.org/1999/xlink">
    <!-- Generator: sketchtool 58 (101010) - https://sketch.com -->
    <title>19D0B89C-F36E-483D-806B-4B91380014B6</title>
    <desc>Created with sketchtool.</desc>
    <g id="Symbols" stroke="none" stroke-width="1" fill="none" fill-rule="evenodd">
        <g id="08.Icon/09.Setting/01.Dashboard/01.Unselected/05.Table_Chart">
            <g id="Group" transform="translate(0.000000, 2.500000)" fill="#656568">
                <polygon id="Fill-1" points="0 3.53756588 19.59125 3.53756588 19.59125 0 0 0"></polygon>
                <polygon id="Fill-2" points="-1.99262828e-12 8.13216595 5.46029167 8.13216595 5.46029167 6.53041667 -1.99262828e-12 6.53041667"></polygon>
                <polygon id="Fill-3" points="7.06533333 8.13195136 12.525625 8.13195136 12.525625 6.53041667 7.06533333 6.53041667"></polygon>
                <polygon id="Fill-4" points="14.1309583 8.13216595 19.59125 8.13216595 19.59125 6.53041667 14.1309583 6.53041667"></polygon>
                <polygon id="Fill-5" points="-1.99262828e-12 12.7269806 5.46029167 12.7269806 5.46029167 11.1252313 -1.99262828e-12 11.1252313"></polygon>
                <polygon id="Fill-6" points="7.06533333 12.726766 12.525625 12.726766 12.525625 11.1250167 7.06533333 11.1250167"></polygon>
                <polygon id="Fill-7" points="14.1309583 12.7269806 19.59125 12.7269806 19.59125 11.1252313 14.1309583 11.1252313"></polygon>
                <polygon id="Fill-8" points="-1.99262828e-12 17.3215807 5.46029167 17.3215807 5.46029167 15.720046 -1.99262828e-12 15.720046"></polygon>
                <polygon id="Fill-9" points="7.06533333 17.3213661 12.525625 17.3213661 12.525625 15.7198314 7.06533333 15.7198314"></polygon>
                <polygon id="Fill-10" points="14.1309583 17.3215807 19.59125 17.3215807 19.59125 15.720046 14.1309583 15.720046"></polygon>
            </g>
            <g id="08.Icon/09.Setting/01.Dashboard/05.Table_Chart" transform="translate(14.000000, 15.000000)"></g>
        </g>
    </g>
</svg>