<?xml version="1.0" encoding="UTF-8"?>
<svg width="8px" height="10px" viewBox="0 0 8 10" version="1.1" xmlns="http://www.w3.org/2000/svg" xmlns:xlink="http://www.w3.org/1999/xlink">
    <!-- Generator: sketchtool 58 (101010) - https://sketch.com -->
    <title>1B399356-8A0A-462C-98BD-EC7CE7CEA0BD</title>
    <desc>Created with sketchtool.</desc>
    <g id="Symbols" stroke="none" stroke-width="1" fill="none" fill-rule="evenodd">
        <g id="08.Icon/05.Service/01.Overview/01.Window/01.Unselected/01.Lock" fill="#787878" fill-rule="nonzero">
            <g id="08.Icon/05.Service/01.Overview/01.Window/02.Selected/01.Lock">
                <path d="M6.19047619,3.33333333 L6.66666667,3.33333333 C7.19285714,3.33333333 7.61904762,3.75952381 7.61904762,4.28571429 L7.61904762,4.28571429 L7.61904762,9.04761905 C7.61904762,9.57380952 7.19285714,10 6.66666667,10 L6.66666667,10 L0.952380952,10 C0.426190476,10 -8.64641692e-13,9.57380952 -8.64641692e-13,9.04761905 L-8.64641692e-13,9.04761905 L-8.64641692e-13,4.28571429 C-8.64641692e-13,3.75952381 0.426190476,3.33333333 0.952380952,3.33333333 L0.952380952,3.33333333 L1.42857143,3.33333333 L1.42857143,2.38095238 C1.42857143,1.06666667 2.4952381,-3.55271368e-15 3.80952381,-3.55271368e-15 C4.45186615,-3.55271368e-15 5.03506083,0.254789925 5.4634899,0.668751822 L4.75753619,1.25002288 C4.5009368,1.03460527 4.17017631,0.904761905 3.80952381,0.904761905 C2.9952381,0.904761905 2.33333333,1.56666667 2.33333333,2.38095238 L2.33333333,2.38095238 L2.33333333,3.33333333 L4.63369278,3.33333333 L6.19047619,3.33333333 Z M3.80952381,5.71428571 C3.28333333,5.71428571 2.85714286,6.14047619 2.85714286,6.66666667 C2.85714286,7.19285714 3.28333333,7.61904762 3.80952381,7.61904762 C4.33571429,7.61904762 4.76190476,7.19285714 4.76190476,6.66666667 C4.76190476,6.14047619 4.33571429,5.71428571 3.80952381,5.71428571 Z" id="Combined-Shape"></path>
            </g>
        </g>
    </g>
</svg>