<?xml version="1.0" encoding="UTF-8"?>
<svg width="192px" height="32px" viewBox="0 0 192 32" version="1.1" xmlns="http://www.w3.org/2000/svg" xmlns:xlink="http://www.w3.org/1999/xlink">
    <!-- Generator: sketchtool 60 (101010) - https://sketch.com -->
    <title>2D8E0ABD-AE17-4CEA-B48B-CC8E8DDF1ED5</title>
    <desc>Created with sketchtool.</desc>
    <g id="Symbols" stroke="none" stroke-width="1" fill="none" fill-rule="evenodd">
        <g id="04.Btn/01.Profile/02.PDF/01.Normal">
            <g id="08.Icon/03.Sidemenu/11.Logout/01.Normal" stroke="#FF4C4C">
                <rect id="Rectangle" x="0.5" y="0.5" width="191" height="31" rx="15.5"></rect>
            </g>
            <text id="PDF" font-family="Roboto-Medium, Roboto" font-size="10" font-weight="400" line-spacing="20" fill="#FFFFFF">
                <tspan x="86.7910156" y="20">PDF</tspan>
            </text>
            <g id="08.Icon/03.Sidemenu/10.Profile/03.PDF" transform="translate(15.689120, 8.000000)" fill="#FF4C4C">
                <path d="M13.3189832,10.3959967 C13.2475325,10.6706353 13.2386012,10.6460742 13.0421118,10.6661697 C12.8433896,10.6862652 12.4280824,10.594719 11.9212291,10.3468744 C11.7359038,10.2553282 11.4768951,9.96952542 11.2714743,9.84448671 C11.5103876,9.8377882 11.8765724,9.72168083 12.0797603,9.73507783 C12.6424345,9.77303601 13.0577416,9.90477323 13.2185057,10.0208806 C13.3770369,10.136988 13.3926668,10.1213581 13.3189832,10.3959967 M7.35508318,9.20812897 C6.99113121,9.30637367 6.75445079,9.49169891 6.39943016,9.60557345 C6.5133047,9.25055282 6.6963971,9.00940673 6.79464181,8.64322192 C6.89288651,8.28150279 6.85269549,7.98453585 6.93307752,7.62058388 L6.93307752,7.62058388 C7.18092212,7.89522248 7.29479666,8.17432675 7.56050392,8.44226685 C7.82844402,8.71020695 8.10531546,8.82184866 8.3821869,9.07415892 C8.01823493,9.15230811 7.71903515,9.10988427 7.35508318,9.20812897 M6.1538184,4.7268308 C6.02654685,4.52587572 5.74744258,4.26909979 5.65589638,4.08377456 C5.40805179,3.57915404 5.31650559,3.15491554 5.33660109,2.95842614 C5.3566966,2.76193673 5.33660109,2.75523823 5.60900686,2.6815547 C5.67822472,2.66369203 5.72734707,2.65029502 5.76530525,2.64359652 C5.88364547,2.62350101 5.89704247,2.66369203 5.98189017,2.78426507 C6.09799755,2.94726197 6.22526909,3.35587062 6.26322727,3.91854483 C6.27662428,4.12396557 6.1605169,4.48791754 6.1538184,4.7268308 M4.28270337,11.7200674 C4.16659599,11.9299538 4.0884468,12.3028371 3.97233942,12.4747654 C3.65974264,12.9436605 3.33598168,13.233929 3.15735495,13.314311 C2.97649538,13.3969259 2.98319388,13.4170214 2.78223881,13.2160663 C2.58128373,13.0151112 2.60361208,13.0240426 2.68622694,12.843183 C2.76660897,12.6645563 3.05687741,12.345261 3.52577259,12.0304314 C3.69770082,11.9165568 4.07058412,11.8339419 4.28270337,11.7200674 M13.8950545,9.07192608 C13.4239264,8.73476813 12.8366911,8.61642791 12.1601423,8.5695384 C11.5528114,8.52934738 10.7266628,8.77049347 9.996526,8.85980684 C9.44055029,8.41547284 8.92699843,8.15646408 8.3888854,7.61611821 C7.84853953,7.07800517 7.58953077,6.56445332 7.14519677,6.00847761 C7.23451014,5.27834084 7.46895772,4.45219219 7.42876671,3.84039563 C7.38411003,3.16607972 7.26576981,2.57437866 6.92861186,2.10548349 C6.67406876,1.75046285 6.23643326,1.5249466 5.77200376,1.50261826 C5.6179382,1.49591976 5.45940697,1.5115496 5.30534142,1.55397345 C4.68684635,1.71920318 4.22911535,2.26848038 4.17329449,2.8445516 C4.11747364,3.41838998 4.30949738,3.98999552 4.61092999,4.59955925 C4.87887009,5.14660362 5.49513232,5.74500318 5.93723349,6.33000573 C5.83229028,7.03558133 5.86354996,7.60941971 5.66706055,8.34625498 C5.46833831,9.08309026 5.15797436,9.56091677 4.89673276,10.2240685 C4.22018401,10.5121041 3.38510403,10.7219905 2.87601784,11.0613813 C2.31334363,11.4387303 1.8600783,11.8339419 1.62116504,12.358658 C1.38001895,12.8856068 1.50282483,13.5911824 1.95385733,14.0422149 C2.40712267,14.4954803 3.11716393,14.6182862 3.6441128,14.3793729 C4.16882883,14.1404596 4.56404047,13.6894271 4.94138945,13.1267529 C5.28078024,12.6176667 5.48843382,11.7825868 5.77646943,11.106038 C6.43962117,10.8447964 6.91968052,10.5321996 7.65651579,10.3334774 C8.39335107,10.1347551 8.96718945,10.1660148 9.67053221,10.0633045 C10.2600004,10.5054056 10.8539343,11.1216678 11.4054444,11.3918408 C12.0127753,11.6910406 12.5799151,11.8852971 13.1559863,11.8294763 C13.7320576,11.7736554 14.2835676,11.3136916 14.4487973,10.6951965 C14.6140271,10.0767015 14.3661825,9.40908404 13.8950545,9.07192608" id="Fill-1"></path>
            </g>
        </g>
    </g>
</svg>
