<svg height="480pt" viewBox="0 0 480 479" width="480pt" xmlns="http://www.w3.org/2000/svg"><path d="m440 416.488281h-400v-288h-32v320h194.71875c6.472656-.15625 12.429688 3.511719 15.203125 9.359375 3.769531 8.851563 12.457031 14.59375 22.078125 14.59375s18.308594-5.742187 22.078125-14.59375c2.773437-5.847656 8.730469-9.515625 15.203125-9.359375h194.71875v-320h-32zm0 0" fill="#254b6f"/><path d="m40 96.488281h400v320h-400zm0 0" fill="#efeadd"/><path d="m72 176.488281h128v96h-128zm0 0" fill="#326fc0"/><path d="m352 120.488281c-.019531 48.472657-31.203125 91.4375-77.28125 106.480469l-34.71875 62.082031-34.71875-62.082031c-54.488281-17.765625-86.773438-73.796875-74.816406-129.84375 11.953125-56.050781 64.289062-94.03125 121.28125-88.019531 56.996094 6.011719 100.253906 54.074219 100.253906 111.382812zm0 0" fill="#f2b134"/><path d="m272 312.488281h136v64h-136zm0 0" fill="#ed553b"/><path d="m224 112.488281h32v80h-32zm0 0" fill="#ee2820"/><path d="m256 72.488281c0 8.835938-7.164062 16-16 16s-16-7.164062-16-16c0-8.835937 7.164062-16 16-16s16 7.164063 16 16zm0 0" fill="#ee2820"/><path d="m40 216.488281v200h184c-101.703125 0-184-89.453125-184-200zm0 0" fill="#d7d3c7"/><g fill="#231f20"><path d="m448 120.488281v-32h-92.464844c-14.332031-51.980469-61.613281-87.988281-115.535156-87.988281s-101.203125 36.007812-115.535156 87.988281h-92.464844v32h-32v336h202.71875c3.242188-.152343 6.285156 1.570313 7.816406 4.433594 5.007813 11.808594 16.582032 19.488281 29.40625 19.511719 12.828125.019531 24.425782-7.617188 29.472656-19.410156 1.515626-2.914063 4.585938-4.683594 7.867188-4.535157h202.71875v-336zm-208-104c51.132812.007813 94.671875 37.179688 102.695312 87.679688 8.027344 50.496093-21.84375 99.335937-70.457031 115.191406l-2.972656.96875-29.265625 52.328125-29.265625-52.328125-2.972656-.96875c-48.613281-15.855469-78.484375-64.695313-70.457031-115.191406 8.023437-50.5 51.5625-87.671875 102.695312-87.679688zm-192 88h73.191406c-8.039062 56.285157 24.910156 110.382813 78.609375 129.066407l40.199219 71.886718 40.199219-71.886718c53.699219-18.683594 86.648437-72.78125 78.609375-129.066407h73.191406v304h-184v-88h-16v88h-184zm416 336h-186.71875c-9.707031-.171875-18.589844 5.445313-22.59375 14.289063-2.539062 5.878906-8.34375 9.679687-14.75 9.65625-6.402344-.027344-12.179688-3.867188-14.671875-9.769532-4.023437-8.792968-12.878906-14.359374-22.546875-14.175781h-186.71875v-304h16v288h416v-288h16zm0 0"/><path d="m200 264.488281h-120v-80h40v-16h-56v112h136zm0 0"/><path d="m64 296.488281h16v16h-16zm0 0"/><path d="m96 296.488281h112v16h-112zm0 0"/><path d="m64 328.488281h16v16h-16zm0 0"/><path d="m96 328.488281h112v16h-112zm0 0"/><path d="m64 360.488281h16v16h-16zm0 0"/><path d="m96 360.488281h112v16h-112zm0 0"/><path d="m416 304.488281h-152v80h152zm-16 64h-120v-48h120zm0 0"/><path d="m304 272.488281h112v16h-112zm0 0"/><path d="m304 240.488281h112v16h-112zm0 0"/><path d="m344 208.488281h72v16h-72zm0 0"/><path d="m360 176.488281h56v16h-56zm0 0"/><path d="m264 104.488281h-48v96h48zm-16 80h-16v-64h16zm0 0"/><path d="m240 96.488281c13.253906 0 24-10.742187 24-24 0-13.253906-10.746094-24-24-24s-24 10.746094-24 24c0 13.257813 10.746094 24 24 24zm0-32c4.417969 0 8 3.582031 8 8s-3.582031 8-8 8-8-3.582031-8-8 3.582031-8 8-8zm0 0"/></g></svg>