<?xml version="1.0" encoding="UTF-8"?>
<svg width="48px" height="48px" viewBox="0 0 48 48" version="1.1" xmlns="http://www.w3.org/2000/svg" xmlns:xlink="http://www.w3.org/1999/xlink">
    <!-- Generator: Sketch 59.1 (86144) - https://sketch.com -->
    <title>Jandi</title>
    <desc>Created with Sketch.</desc>
    <defs>
        <polygon id="path-1" points="0 0 47.99992 0 47.99992 47.99996 0 47.99996"></polygon>
    </defs>
    <g id="Page-3" stroke="none" stroke-width="1" fill="none" fill-rule="evenodd">
        <g id="11_Setting_User_Selected_5_Group_Selected-Copy" transform="translate(-1225.000000, -650.000000)">
            <g id="Group" transform="translate(971.890968, 142.000000)">
                <g id="Jandi" transform="translate(253.054348, 507.989337)">
                    <g id="Group-3">
                        <mask id="mask-2" fill="white">
                            <use xlink:href="#path-1"></use>
                        </mask>
                        <g id="Clip-2"></g>
                        <path d="M36.79992,47.99996 L11.19992,47.99996 C5.03992,47.99996 -8e-05,42.95996 -8e-05,36.79996 L-8e-05,11.19996 C-8e-05,5.03996 5.03992,-4e-05 11.19992,-4e-05 L36.79992,-4e-05 C42.95992,-4e-05 47.99992,5.03996 47.99992,11.19996 L47.99992,36.79996 C47.99992,42.95996 42.95992,47.99996 36.79992,47.99996" id="Fill-1" fill="#FFFFFF" mask="url(#mask-2)"></path>
                    </g>
                    <path d="M26.47864,37.84724 L26.47864,32.82804 C27.11704,32.82804 27.72544,32.83164 28.33384,32.82724 C29.81864,32.81684 31.19544,32.50404 32.23584,31.34124 C33.16464,30.30324 33.53024,29.00964 33.54944,27.67884 C33.60904,23.53084 33.57784,19.38084 33.58064,15.23164 C33.58064,15.19604 33.56144,15.16004 33.53344,15.06084 L26.50104,15.06084 L26.50104,10.15284 L39.16624,10.15284 C39.17904,10.22364 39.20904,10.31284 39.20904,10.40164 C39.20584,16.10684 39.25424,21.81324 39.17024,27.51764 C39.13184,30.11804 38.35864,32.53524 36.55584,34.52444 C34.99504,36.24804 33.01264,37.19004 30.75584,37.52044 C29.36264,37.72364 27.94184,37.74164 26.47864,37.84724" id="Fill-4" fill="#01C474"></path>
                    <path d="M21.5224,32.8234 L21.5224,37.745 C20.7296,37.745 19.95,37.7754 19.174,37.739 C17.0012,37.6366 14.9304,37.1762 13.0852,35.9426 C10.926,34.4994 9.6748,32.4422 9.162,29.9506 C8.9168,28.759 8.8152,27.5198 8.8036,26.3006 C8.7624,21.9606 8.7876,17.6194 8.7876,13.279 L8.7876,12.563 L9.4296,12.563 C13.2508,12.563 17.0724,12.573 20.8936,12.5501629 C21.4308,12.5474 21.5756,12.7026 21.562,13.2302 C21.5256,14.6258 21.5496,16.023 21.5496,17.4718 L14.4528,17.4718 C14.4348,17.6478 14.4104,17.775 14.4104,17.9022 C14.4132,21.0714 14.3832,24.2414 14.4468,27.409 C14.464,28.2722 14.6604,29.1674 14.9568,29.9818 C15.6564,31.9042 17.2056,32.699 19.1544,32.8158 C19.9184,32.8618 20.688,32.8234 21.5224,32.8234" id="Fill-6" fill="#01C474"></path>
                </g>
            </g>
        </g>
    </g>
</svg>