<?xml version="1.0" encoding="UTF-8"?>
<svg width="48px" height="49px" viewBox="0 0 48 49" version="1.1" xmlns="http://www.w3.org/2000/svg" xmlns:xlink="http://www.w3.org/1999/xlink">
    <!-- Generator: Sketch 59.1 (86144) - https://sketch.com -->
    <title>Line</title>
    <desc>Created with Sketch.</desc>
    <defs>
        <polygon id="path-1" points="0 0 47.99996 0 47.99996 47.99988 0 47.99988"></polygon>
    </defs>
    <g id="Page-3" stroke="none" stroke-width="1" fill="none" fill-rule="evenodd">
        <g id="11_Setting_User_Selected_5_Group_Selected-Copy" transform="translate(-1225.000000, -556.000000)">
            <g id="Group" transform="translate(971.890968, 142.000000)">
                <g id="Line" transform="translate(253.054348, 414.380595)">
                    <g id="Group-3">
                        <mask id="mask-2" fill="white">
                            <use xlink:href="#path-1"></use>
                        </mask>
                        <g id="Clip-2"></g>
                        <path d="M37.59996,47.99988 L10.39996,47.99988 C4.65636,47.99988 -4e-05,43.34348 -4e-05,37.59988 L-4e-05,10.39988 C-4e-05,4.65628 4.65636,-0.00012 10.39996,-0.00012 L37.59996,-0.00012 C43.34356,-0.00012 47.99996,4.65628 47.99996,10.39988 L47.99996,37.59988 C47.99996,43.34348 43.34356,47.99988 37.59996,47.99988" id="Fill-1" fill="#00B900" mask="url(#mask-2)"></path>
                    </g>
                    <path d="M41.3984,21.88932 C41.3984,14.06932 33.5584,7.70692 23.922,7.70692 C14.2864,7.70692 6.4456,14.06932 6.4456,21.88932 C6.4456,28.89972 12.6632,34.77132 21.0612,35.88132 C21.6304,36.00412 22.4052,36.25692 22.6012,36.74332 C22.7772,37.18492 22.7164,37.87732 22.6576,38.32372 C22.6576,38.32372 22.4528,39.55652 22.408,39.81972 C22.332,40.26132 22.0568,41.54772 23.922,40.76172 C25.7876,39.97572 33.9868,34.83532 37.6532,30.61492 L37.6524,30.61492 C40.1852,27.83772 41.3984,25.01892 41.3984,21.88932" id="Fill-4" fill="#FFFFFF"></path>
                    <path d="M20.37108,18.1104 L19.14548,18.1104 C18.95748,18.1104 18.80468,18.2628 18.80468,18.4504 L18.80468,26.0652 C18.80468,26.2524 18.95748,26.4044 19.14548,26.4044 L20.37108,26.4044 C20.55908,26.4044 20.71188,26.2524 20.71188,26.0652 L20.71188,18.4504 C20.71188,18.2628 20.55908,18.1104 20.37108,18.1104" id="Fill-6" fill="#00B900"></path>
                    <path d="M28.80856,18.1104 L27.58336,18.1104 C27.39496,18.1104 27.24256,18.2628 27.24256,18.4504 L27.24256,22.974 L23.75256,18.2616 C23.74496,18.2496 23.73576,18.238 23.72656,18.2272 C23.72536,18.2264 23.72456,18.2252 23.72416,18.2248 C23.71736,18.2176 23.71056,18.2104 23.70376,18.2036 C23.70136,18.202 23.69976,18.2 23.69736,18.1984 C23.69176,18.1928 23.68536,18.1876 23.67936,18.1832 C23.67656,18.1804 23.67336,18.1784 23.67016,18.176 C23.66456,18.1716 23.65896,18.168 23.65256,18.164 C23.64936,18.1616 23.64616,18.1596 23.64256,18.1576 C23.63616,18.154 23.63056,18.1508 23.62416,18.1476 C23.62056,18.146 23.61696,18.144 23.61376,18.1424 C23.60696,18.1396 23.60056,18.1364 23.59416,18.1344 C23.59016,18.1328 23.58656,18.1316 23.58296,18.1304 C23.57616,18.1276 23.56936,18.1256 23.56296,18.1236 C23.55896,18.1224 23.55496,18.1216 23.55056,18.1204 C23.54416,18.1188 23.53776,18.1176 23.53136,18.1164 C23.52656,18.1156 23.52176,18.1148 23.51696,18.1144 C23.51136,18.1132 23.50496,18.1128 23.49936,18.112 C23.49336,18.1116 23.48736,18.1112 23.48136,18.1108 C23.47736,18.1108 23.47376,18.1104 23.46936,18.1104 L22.24376,18.1104 C22.05576,18.1104 21.90336,18.2628 21.90336,18.4504 L21.90336,26.0652 C21.90336,26.2524 22.05576,26.4044 22.24376,26.4044 L23.46936,26.4044 C23.65776,26.4044 23.81016,26.2524 23.81016,26.0652 L23.81016,21.5424 L27.30416,26.2612 C27.32816,26.2952 27.35776,26.3228 27.39056,26.3452 C27.39176,26.346 27.39296,26.3468 27.39416,26.348 C27.40096,26.352 27.40776,26.3568 27.41536,26.3604 C27.41816,26.3624 27.42136,26.3644 27.42456,26.366 C27.43016,26.3688 27.43536,26.3712 27.44096,26.3736 C27.44656,26.376 27.45136,26.3784 27.45736,26.3808 C27.46096,26.3824 27.46416,26.3836 27.46736,26.3848 C27.47576,26.3872 27.48336,26.3896 27.49096,26.392 L27.49576,26.3932 C27.52336,26.4008 27.55256,26.4044 27.58336,26.4044 L28.80856,26.4044 C28.99696,26.4044 29.14936,26.2524 29.14936,26.0652 L29.14936,18.4504 C29.14936,18.2628 28.99696,18.1104 28.80856,18.1104" id="Fill-8" fill="#00B900"></path>
                    <path d="M17.4164,24.49792 L14.0856,24.49792 L14.0856,18.45032 C14.0856,18.26232 13.9332,18.11032 13.7452,18.11032 L12.5192,18.11032 C12.3312,18.11032 12.1788,18.26232 12.1788,18.45032 L12.1788,26.06432 L12.1788,26.06512 C12.1788,26.15632 12.2152,26.23912 12.274,26.30032 C12.2752,26.30192 12.2768,26.30392 12.2784,26.30552 C12.2804,26.30672 12.282,26.30832 12.2836,26.30992 C12.3448,26.36872 12.4272,26.40512 12.5188,26.40512 L12.5192,26.40512 L17.4164,26.40512 C17.6044,26.40512 17.7564,26.25232 17.7564,26.06432 L17.7564,24.83872 C17.7564,24.65072 17.6044,24.49792 17.4164,24.49792" id="Fill-10" fill="#00B900"></path>
                    <path d="M35.57848,20.01704 C35.76648,20.01704 35.91848,19.86464 35.91848,19.67664 L35.91848,18.45104 C35.91848,18.26264 35.76648,18.11024 35.57848,18.11024 L30.68128,18.11024 L30.68088,18.11024 C30.58888,18.11024 30.50608,18.14704 30.44448,18.20664 C30.44368,18.20784 30.44168,18.20864 30.44048,18.20984 C30.43848,18.21184 30.43688,18.21384 30.43528,18.21584 C30.37688,18.27664 30.34088,18.35944 30.34088,18.45064 L30.34088,18.45104 L30.34088,26.06464 L30.34088,26.06504 C30.34088,26.15664 30.37728,26.23944 30.43608,26.30024 C30.43728,26.30184 30.43888,26.30384 30.44048,26.30544 C30.44208,26.30704 30.44408,26.30864 30.44568,26.30944 C30.50648,26.36864 30.58928,26.40504 30.68088,26.40504 L30.68128,26.40504 L35.57848,26.40504 C35.76648,26.40504 35.91848,26.25264 35.91848,26.06464 L35.91848,24.83864 C35.91848,24.65064 35.76648,24.49824 35.57848,24.49824 L32.24768,24.49824 L32.24768,23.21064 L35.57848,23.21064 C35.76648,23.21064 35.91848,23.05864 35.91848,22.87064 L35.91848,21.64464 C35.91848,21.45664 35.76648,21.30424 35.57848,21.30424 L32.24768,21.30424 L32.24768,20.01704 L35.57848,20.01704 Z" id="Fill-12" fill="#00B900"></path>
                </g>
            </g>
        </g>
    </g>
</svg>