<?xml version="1.0" encoding="UTF-8"?>
<svg width="49px" height="49px" viewBox="0 0 49 49" version="1.1" xmlns="http://www.w3.org/2000/svg" xmlns:xlink="http://www.w3.org/1999/xlink">
    <!-- Generator: Sketch 59.1 (86144) - https://sketch.com -->
    <title>Slack</title>
    <desc>Created with Sketch.</desc>
    <defs>
        <polygon id="path-1" points="0 0.0184052202 47.9815758 0.0184052202 47.9815758 47.9608483 0 47.9608483"></polygon>
    </defs>
    <g id="Page-3" stroke="none" stroke-width="1" fill="none" fill-rule="evenodd">
        <g id="11_Setting_User_Selected_5_Group_Selected-Copy" transform="translate(-1223.000000, -369.000000)">
            <g id="Group" transform="translate(971.890968, 142.000000)">
                <g id="Slack" transform="translate(251.609032, 227.163112)">
                    <g id="Group-3" transform="translate(0.000000, 0.020750)">
                        <mask id="mask-2" fill="white">
                            <use xlink:href="#path-1"></use>
                        </mask>
                        <g id="Clip-2"></g>
                        <path d="M47.9815758,23.9896287 C47.9815758,37.2285847 37.2405473,47.9608522 23.990784,47.9608522 C10.7410599,47.9608522 -7.83673469e-06,37.2285847 -7.83673469e-06,23.9896287 C-7.83673469e-06,10.7506728 10.7410599,0.0184052202 23.990784,0.0184052202 C37.2405473,0.0184052202 47.9815758,10.7506728 47.9815758,23.9896287" id="Fill-1" fill="#FFFFFF" mask="url(#mask-2)"></path>
                    </g>
                    <path d="M19.8506841,16.7578101 L11.5730155,16.7578101 C9.85684898,16.759063 8.46665143,18.1506715 8.467941,19.8654382 C8.46539755,21.5801657 9.8555951,22.9717742 11.5717616,22.9742799 L19.8506841,22.9742799 C21.5668506,22.9730271 22.9570482,21.5814577 22.955756,19.866691 C22.9570482,18.1506715 21.5668506,16.759063 19.8506841,16.7578101 M19.8506841,8.46911843 C18.1345176,8.47041044 16.7456131,9.86197977 16.7468661,11.5767465 C16.7456131,13.2915132 18.1358106,14.6830825 19.851938,14.6843746 L22.957049,14.6843746 L22.957049,11.5780385 C22.958302,9.86327178 21.5681045,8.4716633 19.8506841,8.46911843 C19.851938,8.46911843 19.851938,8.46911843 19.8506841,8.46911843" id="Fill-4" fill="#36C5F0"></path>
                    <path d="M31.234698,19.8654225 L31.234698,11.5767308 C31.235951,9.86325612 29.8470465,8.47168679 28.13088,8.46914192 C26.4147135,8.47043393 25.0245551,9.86200326 25.0258055,11.5767308 L25.0258055,19.8654225 C25.023262,21.5801892 26.4134596,22.9717586 28.1296261,22.9743034 C29.8457927,22.9730506 31.235951,21.5814421 31.234698,19.8654225 M39.5136205,19.8654225 C39.5149127,18.1506558 38.1247151,16.7590865 36.4085486,16.7577945 C34.692382,16.7590865 33.3022237,18.1506558 33.3034767,19.8654225 L33.3034767,22.9743034 L36.4085486,22.9743034 C38.1247151,22.9730506 39.5149127,21.5814421 39.5136205,19.8654225" id="Fill-6" fill="#2EB67D"></path>
                    <path d="M28.1296222,31.2616835 L36.4085447,31.2616835 C38.1247112,31.2604307 39.5149087,29.8688613 39.5136582,28.1540946 C39.5161626,26.4393279 38.1260042,25.0477194 36.4098377,25.0451746 L28.1308761,25.0451746 C26.4147487,25.0464666 25.0245512,26.4380359 25.0258042,28.1528026 C25.0245512,29.8688613 26.4134557,31.2604307 28.1296222,31.2616835 M28.1296222,39.5515889 C29.8457887,39.5503361 31.2359863,38.1587667 31.2346941,36.444 C31.2359863,34.7292333 29.8457887,33.3376248 28.1296222,33.3363719 L25.0245503,33.3363719 L25.0245503,36.444 C25.0232581,38.1575139 26.4134557,39.5490832 28.1296222,39.5515889" id="Fill-8" fill="#ECB22E"></path>
                    <path d="M16.7468752,28.1540555 L16.7468752,36.4427471 C16.7443318,38.1575139 18.1345293,39.5490832 19.8506958,39.5515889 C21.5668624,39.5503361 22.9570207,38.1587667 22.9557704,36.444 L22.9557704,28.1566003 C22.9583138,26.4418336 21.5681162,25.0502643 19.8519497,25.0477194 C18.1345293,25.0477194 16.7456248,26.4393279 16.7468752,28.1540555 C16.7468752,28.1540555 16.7468752,28.1553475 16.7468752,28.1540555 M8.46795534,28.1540555 C8.46666318,29.8688613 9.85686073,31.2604307 11.5730273,31.2616835 C13.2891938,31.2604307 14.6793522,29.8688613 14.6780991,28.1540555 L14.6780991,25.0464666 L11.5730273,25.0464666 C9.85686073,25.0477194 8.46666318,26.4393279 8.46795534,28.1540555" id="Fill-10" fill="#E01E5A"></path>
                </g>
            </g>
        </g>
    </g>
</svg>