<?xml version="1.0" encoding="UTF-8"?>
<svg width="49px" height="49px" viewBox="0 0 49 49" version="1.1" xmlns="http://www.w3.org/2000/svg" xmlns:xlink="http://www.w3.org/1999/xlink">
    <!-- Generator: Sketch 59.1 (86144) - https://sketch.com -->
    <title>SMS</title>
    <desc>Created with Sketch.</desc>
    <g id="Page-3" stroke="none" stroke-width="1" fill="none" fill-rule="evenodd">
        <g id="11_Setting_User_Selected_5_Group_Selected-Copy" transform="translate(-1224.000000, -743.000000)">
            <g id="Group" transform="translate(971.890968, 142.000000)">
                <g id="SMS" transform="translate(253.054348, 601.598078)">
                    <rect id="Rectangle" stroke="#FFFFFF" x="0.5" y="0.5" width="47" height="47" rx="8"></rect>
                    <g id="ic_phonelink_setup_black_48px" transform="translate(9.007698, 9.500000)">
                        <polygon id="Path" points="0 0 29 0 29 29 0 29"></polygon>
                        <path d="M22.9583333,1.20833333 L10.875,1.20833333 C9.54583333,1.20833333 8.45833333,2.29583333 8.45833333,3.625 L8.45833333,7.25 L10.875,7.25 L10.875,4.83333333 L22.9583333,4.83333333 L22.9583333,24.1666667 L10.875,24.1666667 L10.875,21.75 L8.45833333,21.75 L8.45833333,25.375 C8.45833333,26.7041667 9.54583333,27.7916667 10.875,27.7916667 L22.9583333,27.7916667 C24.2875,27.7916667 25.375,26.7041667 25.375,25.375 L25.375,3.625 C25.375,2.29583333 24.2875,1.20833333 22.9583333,1.20833333 Z" id="Shape" fill="#FFFFFF" fill-rule="nonzero"></path>
                        <path d="M14.2306021,8.82343609 L2.87747431,8.82343609 C2.09339892,8.82343609 1.46542904,9.45850168 1.46542904,10.2425771 L1.45833333,18.7574229 C1.45833333,19.5414983 2.09339892,20.1765639 2.87747431,20.1765639 L14.2306021,20.1765639 C15.0146775,20.1765639 15.6497431,19.5414983 15.6497431,18.7574229 L15.6497431,10.2425771 C15.6497431,9.45850168 15.0146775,8.82343609 14.2306021,8.82343609 Z M14.2306021,11.661718 L8.55403822,15.2095705 L2.87747431,11.661718 L2.87747431,10.2425771 L8.55403822,13.7904295 L14.2306021,10.2425771 L14.2306021,11.661718 Z" id="Shape" fill="#FFFFFF" fill-rule="nonzero"></path>
                    </g>
                </g>
            </g>
        </g>
    </g>
</svg>