<?xml version="1.0" encoding="UTF-8"?>
<svg width="22px" height="16px" viewBox="0 0 22 16" version="1.1" xmlns="http://www.w3.org/2000/svg" xmlns:xlink="http://www.w3.org/1999/xlink">
    <!-- Generator: Sketch 53.2 (72643) - https://sketchapp.com -->
    <title>00.Logo/Symbol</title>
    <desc>Created with Sketch.</desc>
    <g id="00.Logo/Symbol" stroke="none" stroke-width="1" fill="none" fill-rule="evenodd">
        <path d="M19.8940188,8.28163045 L18.5526426,9.96147326 L16.4476822,9.96147326 L18.802747,7.01448605 C18.7945803,6.66890122 18.7088302,6.34134689 18.5618301,6.04785021 L15.4350146,9.96147326 L13.3300543,9.96147326 L17.3552039,4.92394822 C17.0979537,4.81776853 16.8162034,4.75666513 16.5211823,4.74664817 L12.3541367,9.96147326 L10.2501972,9.96147326 L14.2569718,4.94698721 C14.2753469,4.92394822 14.2886177,4.90391432 14.3039302,4.88087533 C13.7485964,3.21004777 12.1509907,2 10.2604055,2 C7.91146583,2 6.00658902,3.8681615 6.00658902,6.1740638 L4.49779593,6.1740638 C2.02431442,6.1740638 0,8.15942364 0,10.5875327 C0,13.0146402 2.02431442,15 4.49779593,15 L8.6219665,15 L12.8972205,15 L13.5730129,15 L16.8325368,15 L18.4148299,15 C20.386061,15 22,13.4163199 22,11.4810448 C22,10.0636462 21.1333117,8.83757127 19.8940188,8.28163045" id="Fill-1" fill="#FFFFFF"></path>
    </g>
</svg>