<?xml version="1.0" encoding="UTF-8"?>
<svg width="48px" height="47px" viewBox="0 0 48 47" version="1.1" xmlns="http://www.w3.org/2000/svg" xmlns:xlink="http://www.w3.org/1999/xlink">
    <!-- Generator: Sketch 59.1 (86144) - https://sketch.com -->
    <title>Telegram</title>
    <desc>Created with Sketch.</desc>
    <defs>
        <polygon id="path-1" points="0 0.0203879916 47.2290029 0.0203879916 47.2290029 45.9374656 0 45.9374656"></polygon>
    </defs>
    <g id="Page-3" stroke="none" stroke-width="1" fill="none" fill-rule="evenodd">
        <g id="11_Setting_User_Selected_5_Group_Selected-Copy" transform="translate(-1223.000000, -462.000000)">
            <g id="Group" transform="translate(971.890968, 142.000000)">
                <g id="Telegram" transform="translate(251.609032, 320.771854)">
                    <g id="Group-3" transform="translate(0.000000, 0.065637)">
                        <mask id="mask-2" fill="white">
                            <use xlink:href="#path-1"></use>
                        </mask>
                        <g id="Clip-2"></g>
                        <path d="M47.2290029,22.9789526 C47.2290029,35.6586489 36.6565058,45.9374656 23.614444,45.9374656 C10.5725591,45.9374656 -2.65449438e-05,35.6586489 -2.65449438e-05,22.9789526 C-2.65449438e-05,10.2991703 10.5725591,0.0203535815 23.614444,0.0203535815 C36.6565058,0.0203535815 47.2290029,10.2991703 47.2290029,22.9789526" id="Fill-1" fill="#0088CC" mask="url(#mask-2)"></path>
                    </g>
                    <path d="M35.1049096,13.2927382 L30.8871834,33.9674521 C30.8871834,33.9674521 30.2972663,35.4012354 28.6751048,34.7130332 L18.9419587,27.4581771 L15.4026329,25.7950504 L9.44479719,23.8451153 C9.44479719,23.8451153 8.53050084,23.5297467 8.4420177,22.8415444 C8.35353455,22.1533422 9.47426208,21.7805086 9.47426208,21.7805086 L33.1582803,12.7478541 C33.1582803,12.7478541 35.1049096,11.9163337 35.1049096,13.2927382" id="Fill-4" fill="#FFFFFF"></path>
                    <path d="M18.1938249,33.735287 C18.1938249,33.735287 17.9097055,33.7093934 17.5557729,32.6196252 C17.2018403,31.530029 15.402624,25.7950676 15.402624,25.7950676 L29.7074288,16.9631101 C29.7074288,16.9631101 30.533242,16.4756908 30.5037771,16.9631101 C30.5037771,16.9631101 30.6512785,17.0491354 30.2088628,17.4506153 C29.7664471,17.8520953 18.9715032,27.2860578 18.9715032,27.2860578" id="Fill-6" fill="#D2E5F1"></path>
                    <path d="M22.6738947,30.239839 L18.823993,33.6524619 C18.823993,33.6524619 18.5230618,33.8744071 18.193816,33.7353042 L18.9309691,27.3964454" id="Fill-8" fill="#B5CFE4"></path>
                </g>
            </g>
        </g>
    </g>
</svg>