<?xml version="1.0" encoding="UTF-8"?>
<svg width="140px" height="19px" viewBox="0 0 140 19" version="1.1" xmlns="http://www.w3.org/2000/svg" xmlns:xlink="http://www.w3.org/1999/xlink">
    <!-- Generator: Sketch 53.2 (72643) - https://sketchapp.com -->
    <title>00.Logo/Type</title>
    <desc>Created with Sketch.</desc>
    <defs>
        <polygon id="path-1" points="0.194642702 0.0656831108 20.6126633 0.0656831108 20.6126633 11.6087596 0.194642702 11.6087596"></polygon>
        <linearGradient x1="-0.000289738082%" y1="49.9994303%" x2="100.000584%" y2="49.9994303%" id="linearGradient-3">
            <stop stop-color="#3D80F6" offset="0%"></stop>
            <stop stop-color="#2DA7DF" offset="100%"></stop>
        </linearGradient>
        <path d="M42.1115651,0.174375618 L42.1115651,4.72045054 C41.4149419,3.90718611 40.4026841,3.5259043 39.2576664,3.5259043 L39.2576664,3.5259043 C36.6859923,3.5259043 34.7778249,5.30160491 34.7778249,8.05586047 L34.7778249,8.05586047 C34.7778249,10.809823 36.6859923,12.6019354 39.2576664,12.6019354 L39.2576664,12.6019354 C40.4689175,12.6019354 41.497294,12.1869507 42.1947965,11.3408626 L42.1947965,11.3408626 L42.1947965,12.4858804 L44.1853162,12.4858804 L44.1853162,0.174375618 L42.1115651,0.174375618 Z M36.8682808,8.05586047 C36.8682808,6.36339124 38.0132985,5.28460695 39.5064813,5.28460695 L39.5064813,5.28460695 C40.9996641,5.28460695 42.1449749,6.36339124 42.1449749,8.05586047 L42.1449749,8.05586047 C42.1449749,9.74803663 40.9996641,10.8265278 39.5064813,10.8265278 L39.5064813,10.8265278 C38.0132985,10.8265278 36.8682808,9.74803663 36.8682808,8.05586047 L36.8682808,8.05586047 Z M10.0856513,12.4858804 L12.1596954,12.4858804 L12.1596954,0.174375618 L10.0856513,0.174375618 L10.0856513,12.4858804 Z M13.6915632,8.05586047 C13.6915632,10.7104728 15.682669,12.6019354 18.4041009,12.6019354 L18.4041009,12.6019354 C21.1586495,12.6019354 23.1330504,10.7104728 23.1330504,8.05586047 L23.1330504,8.05586047 C23.1330504,5.40095505 21.1586495,3.5259043 18.4041009,3.5259043 L18.4041009,3.5259043 C15.682669,3.5259043 13.6915632,5.40095505 13.6915632,8.05586047 L13.6915632,8.05586047 Z M15.7826053,8.05586047 C15.7826053,6.36339124 16.9109181,5.28460695 18.4041009,5.28460695 L18.4041009,5.28460695 C19.9139886,5.28460695 21.0423014,6.36339124 21.0423014,8.05586047 L21.0423014,8.05586047 C21.0423014,9.74803663 19.9139886,10.8265278 18.4041009,10.8265278 L18.4041009,10.8265278 C16.9109181,10.8265278 15.7826053,9.74803663 15.7826053,8.05586047 L15.7826053,8.05586047 Z M0.256141664,8.05586047 C0.256141664,10.7104728 2.24695439,12.6019354 5.05103155,12.6019354 L5.05103155,12.6019354 C6.77691056,12.6019354 8.15403834,11.8551975 8.83424978,10.5278913 L8.83424978,10.5278913 L7.24113069,9.59886488 C6.71009099,10.445246 5.91353145,10.8265278 5.03461972,10.8265278 L5.03461972,10.8265278 C3.50773406,10.8265278 2.3465976,9.78115334 2.3465976,8.05586047 L2.3465976,8.05586047 C2.3465976,6.34668635 3.50773406,5.28460695 5.03461972,5.28460695 L5.03461972,5.28460695 C5.91353145,5.28460695 6.71009099,5.6664749 7.24113069,6.51285605 L7.24113069,6.51285605 L8.83424978,5.58324352 C8.15403834,4.23923245 6.77691056,3.5259043 5.05103155,3.5259043 L5.05103155,3.5259043 C2.24695439,3.5259043 0.256141664,5.40095505 0.256141664,8.05586047 L0.256141664,8.05586047 Z M31.1704476,3.62525444 L31.1704476,8.10568207 C31.1704476,9.88108962 30.1915996,10.7769993 28.7479453,10.7769993 L28.7479453,10.7769993 C27.437051,10.7769993 26.6736081,10.0132634 26.6736081,8.40402557 L26.6736081,8.40402557 L26.6736081,3.62525444 L24.5998571,3.62525444 L24.5998571,8.6862503 C24.5998571,11.3575675 26.1425684,12.6019354 28.415899,12.6019354 L28.415899,12.6019354 C29.5609167,12.6019354 30.6059981,12.1705389 31.2697977,11.3575675 L31.2697977,11.3575675 L31.2697977,12.4858804 L33.2441986,12.4858804 L33.2441986,3.62525444 L31.1704476,3.62525444 Z" id="path-4"></path>
    </defs>
    <g id="00.Logo/Type" stroke="none" stroke-width="1" fill="none" fill-rule="evenodd">
        <g id="00.Logotype" transform="translate(0.000000, 0.000000)">
            <g id="Group-14" transform="translate(0.000000, 0.174376)">
                <g id="Group-20" transform="translate(0.000000, 0.078528)">
                    <g id="Group-3" transform="translate(61.414083, 4.868190)">
                        <mask id="mask-2" fill="white">
                            <use xlink:href="#path-1"></use>
                        </mask>
                        <g id="Clip-2"></g>
                        <path d="M20.6126633,0.0656831108 L18.1242696,0.0656831108 L11.1724949,9.00442801 C11.1174469,9.07520399 11.0579052,9.1377415 10.9968656,9.19615978 C10.9800142,9.21263673 10.9624138,9.22799025 10.9451879,9.24334377 C10.8950081,9.28790643 10.8433304,9.32834985 10.7905293,9.36542298 C10.7759247,9.37515936 10.7620691,9.38639365 10.7474645,9.39613003 C10.6811823,9.43919478 10.6122787,9.47664239 10.5422516,9.50847286 C10.5265236,9.51596238 10.5104212,9.52120505 10.4943187,9.52832009 C10.4373983,9.55228657 10.379729,9.57250828 10.3209362,9.58973418 C10.3007145,9.59535132 10.2808673,9.60134294 10.2602711,9.6065856 C10.1872483,9.62456046 10.1134765,9.6395395 10.0389557,9.6474035 C10.0378323,9.6474035 10.0367089,9.6474035 10.0359599,9.64777798 C9.97754164,9.65376959 9.91912337,9.65713988 9.8607051,9.65713988 C9.84422815,9.65713988 9.82812567,9.65489302 9.81164872,9.65451855 C9.79442282,9.65414407 9.7775714,9.65339512 9.76071997,9.65227169 C9.6865737,9.64777798 9.61280191,9.64028845 9.54015354,9.62643284 C9.54015354,9.62643284 9.53828116,9.62605836 9.53753221,9.62605836 C9.46525832,9.61220274 9.39485681,9.59235551 9.32520425,9.56951247 C9.3087273,9.5642698 9.29262483,9.55902714 9.27689683,9.55303552 C9.20799322,9.52869457 9.14058752,9.50098334 9.07580316,9.46802944 C9.0671902,9.46353573 9.05857725,9.45829306 9.05033878,9.45379935 C8.99192051,9.42271783 8.93537461,9.3886405 8.88107557,9.35119289 C8.86759443,9.34183099 8.85411329,9.33284356 8.84063215,9.32348166 C8.7818394,9.28041691 8.72604246,9.23435634 8.67324133,9.18455102 C8.662756,9.17444016 8.65301962,9.16395483 8.64328324,9.15384398 C8.59722268,9.10778342 8.55415793,9.059476 8.5137145,9.00817277 C8.50472708,8.99693849 8.49573965,8.98645315 8.48675222,8.97484439 C8.44293852,8.91567717 8.40324405,8.85276518 8.36691987,8.78685738 C8.35830692,8.77225282 8.35119187,8.75652482 8.34332787,8.74154577 C8.31187188,8.67938274 8.28378617,8.61534732 8.26019417,8.54794162 C8.25682389,8.53857972 8.25270465,8.52996677 8.24933437,8.52023039 C8.22461894,8.44570964 8.20589514,8.36744413 8.19166504,8.28693177 C8.18829476,8.26783349 8.18529895,8.24910968 8.18267762,8.22963692 C8.17031991,8.14612875 8.16208143,8.06074819 8.16208143,7.9712484 L8.16208143,2.69188411 C8.15608981,2.47281559 8.13362125,2.29119467 8.1014163,2.12043356 C7.9916948,1.61226947 7.66365372,0.870057809 6.81583979,0.431920753 C6.53123794,0.291492209 6.21892486,0.199371084 5.89987121,0.140203858 C5.8373337,0.128969574 5.77442171,0.118484243 5.70776497,0.109871293 C5.55497871,0.0881516778 5.40181798,0.0750450137 5.2494062,0.0656831108 L2.66102728,0.0656831108 L1.13878187,2.0163292 L5.23330373,2.0163292 C6.37807721,2.0163292 6.61212479,3.62695098 5.51341186,3.94974939 L2.20341747,4.92263834 C2.15061634,4.93799186 2.09818968,4.95709014 2.04838436,4.98068214 C-1.00958761,6.41380223 -0.123951595,11.3044603 3.52868844,11.3044603 L6.84729579,11.2969708 L5.33216542,9.34669918 L5.3246759,9.34669918 L3.37702562,9.33396699 L3.37740009,9.33621385 C2.33785439,9.23173501 1.69188309,8.04464572 2.29478964,7.1560139 C2.48539798,6.87478233 2.78011069,6.64747533 3.18716623,6.52951535 L6.21143534,5.65511362 L6.21031191,7.96113755 L6.21031191,7.9712484 C6.21031191,8.09557447 6.21705248,8.21840264 6.22903572,8.3397329 C6.23352943,8.3820487 6.24214238,8.42249212 6.248134,8.46443345 C6.25861933,8.54232448 6.26798124,8.62058999 6.28370923,8.69660864 C6.29531799,8.75278006 6.31179494,8.80670462 6.32565056,8.86175261 C6.34100408,8.92166879 6.35411074,8.98270839 6.3720856,9.04112667 C6.39155835,9.10516208 6.41702273,9.16657617 6.43986577,9.22911368 C6.45746615,9.27629767 6.47281967,9.32460509 6.49229243,9.37104013 C6.52150157,9.44106716 6.55632784,9.50809838 6.58965622,9.57587856 C6.60763107,9.61182827 6.62335907,9.6489014 6.64208288,9.68410216 C6.6825263,9.75862291 6.72708895,9.82977337 6.77202609,9.90129831 C6.78850304,9.92676268 6.80310761,9.95409944 6.81995903,9.97956381 C6.87201121,10.0570804 6.92818263,10.1312266 6.98547747,10.2042495 C6.99858414,10.2211009 7.0101929,10.2387013 7.02367404,10.2551782 C7.08808393,10.3341927 7.15623858,10.4098369 7.22738905,10.4832342 C7.23525304,10.4918471 7.24274257,10.501209 7.25098104,10.509822 C7.32812312,10.5880875 7.40863549,10.6626083 7.49251814,10.7341332 C7.49551394,10.7367545 7.49813528,10.7393759 7.50113109,10.7419972 C8.13811496,11.2812428 8.96158794,11.6089094 9.8607051,11.6089094 C10.9781418,11.6089094 12.0401561,11.0970005 12.7355582,10.2035005 L15.0063814,7.28408473 L18.1242696,11.2973453 L20.6126633,11.2973453 L16.2496421,5.6820759 L20.6126633,0.0656831108 Z" id="Fill-1" fill="#FFFFFF" mask="url(#mask-2)"></path>
                    </g>
                    <polygon id="Fill-4" fill="#FFFFFF" points="75.1749944 7.3472963 73.2999925 4.93379773 70.8119731 4.93379773 73.9313592 8.94818169"></polygon>
                    <path d="M56.1838501,0.0731726331 L51.850038,11.5583551 L47.5162259,0.0731726331 L43.232968,0.0731726331 C43.232968,0.0731726331 43.9220041,0.349536007 44.2800033,1.16102575 C44.3541495,1.32916553 44.3769926,1.51677806 44.3571454,1.69952241 L42.8000737,16.1528026 L44.9315917,16.1528026 C45.4236533,11.591309 45.9217066,6.52052793 46.4133937,1.95903435 L51.850038,16.1528026 L57.2994144,1.95903435 C57.7911015,6.52052793 58.2767971,11.591309 58.7684842,16.1528026 L60.9003767,16.1528026 L59.1680502,0.0731726331 L56.1838501,0.0731726331 Z" id="Fill-6" fill="#FFFFFF"></path>
                    <path d="M15.0427056,14.768252 C15.0206115,14.6847439 15.0015132,14.596742 14.9857852,14.5038719 C14.9543292,14.3177573 14.9363544,14.1125444 14.9367289,13.8859863 L14.9367289,9.25334228 C14.9367289,9.11291374 14.9288649,8.97473205 14.9153837,8.83767379 C14.9112645,8.79273666 14.9034005,8.74892295 14.8974089,8.70473477 C14.8858001,8.61298812 14.8730679,8.52161595 14.855842,8.43211616 C14.8461056,8.38081293 14.832999,8.33063313 14.8213902,8.27970438 C14.8022919,8.19844306 14.7824447,8.1179307 14.7588527,8.03854176 C14.7434992,7.98686406 14.7266478,7.93556083 14.7097963,7.88500655 C14.6839575,7.80823895 14.6562462,7.73259477 14.6262882,7.65807403 C14.6064409,7.6082687 14.5858447,7.55921233 14.5644996,7.51015596 C14.5311712,7.43526074 14.494847,7.36223789 14.4577739,7.289964 C14.4345564,7.24502687 14.4120878,7.19971526 14.3873724,7.15552708 C14.3439332,7.07763605 14.2967492,7.00274082 14.2488162,6.92822008 C14.2255987,6.89264484 14.2042536,6.85594619 14.1802871,6.82074543 C14.1061408,6.71289631 14.0286243,6.608043 13.9451161,6.5076834 C13.8147984,6.35040343 13.6698762,6.20548117 13.5185878,6.06767396 C13.2598248,5.83212848 12.9759719,5.62391976 12.6662802,5.45577999 C12.5558097,5.39586381 12.441969,5.34231372 12.3258814,5.29175945 C12.291804,5.27715488 12.2577267,5.26367374 12.2229004,5.24981812 C12.1356475,5.21461737 12.0468967,5.18203795 11.9570224,5.15245433 C11.9214472,5.14084557 11.8858719,5.12848786 11.8502967,5.11762805 C11.7274685,5.08092939 11.6031425,5.04760102 11.476944,5.02176217 C11.1957124,4.96409285 10.90437,4.93376028 10.6066615,4.93376028 L10.6055381,4.93376028 C10.4587435,4.93376028 10.3141957,4.94387114 10.1711458,4.95810123 C10.1355706,4.96184599 10.0999953,4.96596523 10.0640456,4.97045894 C9.92249365,4.98843379 9.78243959,5.01052788 9.6457558,5.04198388 C9.64538133,5.04198388 9.64500685,5.04198388 9.6442579,5.04198388 C9.54127697,5.06557587 9.43941946,5.09328711 9.33943434,5.12399415 C9.13871514,5.18578271 8.94473651,5.26180136 8.75787293,5.35092667 C8.75000893,5.35467143 8.74289389,5.35916515 8.73502989,5.36253543 C8.55677926,5.44903942 8.38452024,5.54677768 8.22012523,5.65612471 L8.22012523,5.6295369 L8.22012523,4.93376028 L4.87081085,4.93376028 C4.87081085,4.93376028 6.27621971,5.25506079 6.27659419,7.34875675 L6.27659419,16.1534392 L8.22012523,16.1534392 L8.22724028,16.1534392 L8.22724028,9.25334228 C8.22724028,9.14362078 8.23735113,9.03614613 8.25158122,8.93054387 C8.25532598,8.90433054 8.25944522,8.87811721 8.26356446,8.85227836 C8.29913969,8.64369516 8.3616772,8.44409939 8.44818118,8.25761029 C8.45866652,8.23439277 8.46952632,8.21117525 8.48150956,8.18833221 C8.52719564,8.09696003 8.57662649,8.00783472 8.63354686,7.92357759 C8.63354686,7.92357759 8.63392134,7.92320312 8.63392134,7.92282864 C8.71930189,7.79663019 8.81666568,7.67867021 8.92376585,7.57119557 L8.9245148,7.57082109 C9.03198945,7.46334645 9.14994943,7.36598266 9.27652235,7.2806021 C9.4027208,7.19484707 9.53828116,7.12144975 9.68058208,7.0611591 C9.89403347,6.97091035 10.1232129,6.91099417 10.363252,6.88665323 C10.4433899,6.87841475 10.5246512,6.87392104 10.6066615,6.87392104 C10.716383,6.87392104 10.8238577,6.88403189 10.9298344,6.89863646 C10.9560477,6.90238122 10.9818866,6.90612598 11.0080999,6.9106197 C11.1122043,6.92822008 11.2148107,6.95031417 11.3140469,6.98102121 C11.3885676,7.00423873 11.4615905,7.03082653 11.532741,7.0611591 C11.6278579,7.10122804 11.7181066,7.14953546 11.806483,7.20121316 C11.8285771,7.21431983 11.8502967,7.22742649 11.8716418,7.24090763 C12.0442753,7.34950571 12.2015553,7.47944892 12.3401115,7.62736698 C12.3577118,7.64571631 12.3745633,7.66444012 12.3914147,7.6835384 C12.4584459,7.75955705 12.5224813,7.83857151 12.5794017,7.92282864 C12.5797762,7.92320312 12.5797762,7.92320312 12.5801507,7.92357759 C12.6366965,8.00783472 12.6861274,8.09733451 12.732188,8.18870668 C12.7434222,8.21117525 12.7546565,8.23439277 12.7655163,8.25723581 C12.8516458,8.44409939 12.9141833,8.64369516 12.9497586,8.85265284 C12.9542523,8.87811721 12.9579971,8.90433054 12.9613673,8.93016939 C12.9759719,9.03614613 12.9860828,9.14362078 12.9860828,9.25334228 L12.9860828,16.1534392 L16.0961069,16.1534392 C16.0961069,16.1534392 15.3291798,15.8531094 15.0427056,14.768252" id="Fill-8" fill="#FFFFFF"></path>
                    <polygon id="Fill-10" fill="#FFFFFF" points="18.8364482 0.100060018 15.9338839 3.00224992 18.8364482 3.00224992"></polygon>
                    <path d="M37.9526676,5.79415661 L37.9526676,5.50768238 L37.9526676,4.93361049 L37.4680955,4.93361049 L36.0072641,4.93361049 L36.0020215,4.93361049 L34.3906508,4.93361049 C34.3906508,4.93361049 35.947348,5.2485449 36.0020215,7.24525156 L36.0020215,16.1532894 L37.9526676,16.1532894 L37.9526676,9.58422938 C38.1552591,7.68076728 39.0584955,6.8838821 40.92451,6.8838821 L41.8262485,6.8838821 L41.8262485,4.93361049 L40.92451,4.93361049 C39.6112223,4.93361049 38.6536869,5.26614528 37.9526676,5.79415661" id="Fill-12" fill="#FFFFFF"></path>
                    <path d="M20.6920148,14.2026808 C19.6513457,14.105317 18.8368602,13.2473922 18.8368602,12.1812587 L18.8368602,6.88429403 L22.7991919,6.88429403 L21.2836871,4.93439689 L18.8368602,4.93439689 L17.3820204,4.93439689 L15.9103293,4.93439689 C16.2312553,5.13698847 16.8884609,5.78033844 16.8862141,7.16252978 L16.8862141,12.1861269 C16.8862141,14.3109044 18.5912038,16.0507204 20.6912659,16.1533269 L24.3131989,16.1514545 L22.7991919,14.2026808 L20.6920148,14.2026808 Z" id="Fill-14" fill="#FFFFFF"></path>
                    <path d="M31.5108545,9.58190763 L31.5108545,9.58190763 L25.7416755,9.58190763 C25.8558907,8.08774792 27.3916172,6.87182397 28.9134882,6.87182397 C30.4439721,6.87182397 31.9980479,8.07651364 32.1006544,9.58190763 L31.5108545,9.58190763 Z M28.9134882,4.92117788 C26.0884404,4.92117788 23.7764248,7.26053018 23.7764248,10.086327 L23.7764248,11.0150277 C23.7764248,13.950546 25.9622419,16.1595806 28.9179819,16.1595806 L33.6169082,16.1520911 L32.1006544,14.2010705 L28.4899557,14.2018195 C27.0306223,14.1329159 25.8461543,12.9799039 25.733437,11.5325537 L25.7416755,11.5325537 L34.0513005,11.5325537 L34.0513005,10.086327 C34.0513005,7.26053018 31.739285,4.92117788 28.9134882,4.92117788 L28.9134882,4.92117788 Z" id="Fill-16" fill="#FFFFFF"></path>
                    <path d="M4.61878842,16.1091012 C4.48622387,16.0555511 4.2679043,15.9443317 4.0499592,15.7308804 C3.70094746,15.3897326 3.35118677,14.787575 3.34893991,13.7439101 L3.34893991,0.100247256 L0,0.100247256 C0,0.100247256 1.39417458,0.421547764 1.39829382,2.50850316 L1.39829382,16.1525405 L3.34856543,16.1525405 L3.34893991,16.1525405 L4.7476082,16.1525405 C4.7476082,16.1525405 4.74199106,16.1510426 4.73188021,16.1484212 C4.7116585,16.1424296 4.6723385,16.1304464 4.61878842,16.1091012" id="Fill-18" fill="#FFFFFF"></path>
                </g>
                <path d="M136.94292,0.675817047 L136.94292,6.48469056 C136.05279,5.44551934 134.75935,4.95832591 133.296272,4.95832591 L133.296272,4.95832591 C130.010244,4.95832591 127.57203,7.2272767 127.57203,10.7466032 L127.57203,10.7466032 C127.57203,14.2655553 130.010244,16.5554768 133.296272,16.5554768 L133.296272,16.5554768 C134.843981,16.5554768 136.158018,16.0252186 137.049271,14.944106 L137.049271,14.944106 L137.049271,16.4071842 L139.592713,16.4071842 L139.592713,0.675817047 L136.94292,0.675817047 Z M130.243168,10.7466032 C130.243168,8.58400367 131.706246,7.20555709 133.614202,7.20555709 L133.614202,7.20555709 C135.522158,7.20555709 136.98561,8.58400367 136.98561,10.7466032 L136.98561,10.7466032 C136.98561,12.9088283 135.522158,14.2869004 133.614202,14.2869004 L133.614202,14.2869004 C131.706246,14.2869004 130.243168,12.9088283 130.243168,10.7466032 L130.243168,10.7466032 Z M96.0209189,16.4071842 L98.6710864,16.4071842 L98.6710864,0.675817047 L96.0209189,0.675817047 L96.0209189,16.4071842 Z M100.628473,10.7466032 C100.628473,14.1386079 103.172664,16.5554768 106.650049,16.5554768 L106.650049,16.5554768 C110.16975,16.5554768 112.692596,14.1386079 112.692596,10.7466032 L112.692596,10.7466032 C112.692596,7.35422411 110.16975,4.95832591 106.650049,4.95832591 L106.650049,4.95832591 C103.172664,4.95832591 100.628473,7.35422411 100.628473,10.7466032 L100.628473,10.7466032 Z M103.30036,10.7466032 C103.30036,8.58400367 104.742093,7.20555709 106.650049,7.20555709 L106.650049,7.20555709 C108.57935,7.20555709 110.021083,8.58400367 110.021083,10.7466032 L110.021083,10.7466032 C110.021083,12.9088283 108.57935,14.2869004 106.650049,14.2869004 L106.650049,14.2869004 C104.742093,14.2869004 103.30036,12.9088283 103.30036,10.7466032 L103.30036,10.7466032 Z M83.46099,10.7466032 C83.46099,14.1386079 86.0048062,16.5554768 89.5877937,16.5554768 L89.5877937,16.5554768 C91.7930835,16.5554768 93.5527468,15.6013116 94.4219059,13.9053093 L94.4219059,13.9053093 L92.3862537,12.71822 C91.707703,13.799707 90.6898769,14.2869004 89.566823,14.2869004 L89.566823,14.2869004 C87.6158025,14.2869004 86.1321281,12.9511441 86.1321281,10.7466032 L86.1321281,10.7466032 C86.1321281,8.56265853 87.6158025,7.20555709 89.566823,7.20555709 L89.566823,7.20555709 C90.6898769,7.20555709 91.707703,7.69349947 92.3862537,8.77498649 L92.3862537,8.77498649 L94.4219059,7.58714825 C93.5527468,5.86980078 91.7930835,4.95832591 89.5877937,4.95832591 L89.5877937,4.95832591 C86.0048062,4.95832591 83.46099,7.35422411 83.46099,10.7466032 L83.46099,10.7466032 Z M122.962603,5.08527332 L122.962603,10.8102642 C122.962603,13.0788405 121.711853,14.223614 119.867184,14.223614 L119.867184,14.223614 C118.192152,14.223614 117.216642,13.2477292 117.216642,11.1914809 L117.216642,11.1914809 L117.216642,5.08527332 L114.566849,5.08527332 L114.566849,11.5521014 C114.566849,14.9654512 116.538091,16.5554768 119.442902,16.5554768 L119.442902,16.5554768 C120.90598,16.5554768 122.241362,16.0042479 123.08955,14.9654512 L123.08955,14.9654512 L123.08955,16.4071842 L125.612396,16.4071842 L125.612396,5.08527332 L122.962603,5.08527332 Z" id="Fill-21" fill="url(#linearGradient-3)"></path>
            </g>
            <g id="Group-23" transform="translate(65.061155, 0.528900)">
                <mask id="mask-5" fill="white">
                    <use xlink:href="#path-4"></use>
                </mask>
                <g id="Clip-22"></g>
            </g>
        </g>
    </g>
</svg>